<?xml version="1.0" standalone="no"?>
<!DOCTYPE svg PUBLIC "-//W3C//DTD SVG 20010904//EN"
 "http://www.w3.org/TR/2001/REC-SVG-20010904/DTD/svg10.dtd">
<svg version="1.0" xmlns="http://www.w3.org/2000/svg"
 width="1600.000000pt" height="1600.000000pt" viewBox="0 0 1600.000000 1600.000000"
 preserveAspectRatio="xMidYMid meet">
<metadata>
Created by potrace 1.14, written by Peter Selinger 2001-2017
</metadata>
<g transform="translate(0.000000,1600.000000) scale(0.100000,-0.100000)"
fill="#000000" stroke="none">
<path d="M8974 14951 c-59 -27 -119 -84 -154 -147 -25 -43 -37 -54 -63 -59
-39 -7 -138 -2 -155 8 -6 5 -19 4 -28 -1 -19 -11 -64 -4 -64 10 0 6 -11 7 -27
4 -14 -4 -29 -3 -32 2 -7 10 -237 52 -313 57 -69 4 -170 -22 -252 -65 -78 -42
-193 -88 -216 -87 -8 0 -40 -7 -70 -16 -30 -9 -91 -23 -135 -32 -44 -10 -89
-19 -100 -22 -11 -3 -69 -9 -130 -13 -105 -7 -112 -7 -145 15 -61 40 -137 56
-287 58 -126 2 -142 0 -187 -21 -27 -13 -59 -25 -72 -26 -13 -2 -27 -5 -30 -9
-3 -3 -12 -3 -19 -1 -33 13 -175 -94 -175 -131 0 -9 -22 -37 -49 -63 -27 -27
-57 -67 -66 -90 -14 -34 -25 -44 -62 -58 -24 -10 -55 -26 -69 -36 -13 -11 -34
-20 -46 -20 -13 -1 -29 -6 -36 -12 -8 -5 -32 -9 -55 -7 -70 4 -153 -33 -312
-141 -82 -55 -161 -110 -175 -120 -14 -10 -54 -38 -90 -61 -93 -60 -223 -194
-317 -327 -45 -63 -88 -122 -96 -130 -28 -31 -57 -92 -57 -120 0 -33 -15 -47
-33 -31 -15 12 -136 16 -192 6 -29 -5 -52 -20 -83 -52 -24 -24 -58 -51 -77
-59 -19 -8 -42 -25 -50 -38 -9 -13 -29 -29 -44 -36 -51 -21 -201 -196 -201
-234 0 -9 -6 -16 -14 -16 -8 0 -16 -12 -18 -27 -2 -23 -8 -27 -33 -28 -30 0
-30 -1 -37 -65 -9 -88 -18 -130 -29 -130 -5 0 -9 9 -9 19 0 10 -7 21 -15 25
-8 3 -12 12 -9 19 8 23 -22 28 -41 7 -14 -15 -16 -29 -10 -68 5 -41 4 -52 -10
-60 -14 -7 -15 -13 -7 -29 12 -22 4 -133 -9 -133 -5 0 -9 7 -9 15 0 17 -35 55
-50 55 -6 0 -10 -24 -10 -53 0 -29 -5 -58 -11 -64 -8 -8 -9 -36 -5 -85 8 -102
8 -121 -6 -129 -16 -10 -2 -39 20 -39 11 0 25 -7 32 -15 10 -12 10 -15 -3 -15
-40 0 -25 -46 16 -52 21 -3 22 -7 19 -92 -2 -49 -5 -93 -8 -97 -3 -5 -14 -4
-24 1 -11 6 -28 14 -38 19 -17 8 -62 -2 -62 -15 0 -3 6 -4 14 -1 29 11 39 -23
37 -122 -1 -37 -3 -42 -16 -31 -8 7 -15 19 -15 26 0 9 -12 14 -35 14 -32 0
-35 -2 -29 -24 4 -16 1 -25 -11 -30 -9 -3 -13 -11 -10 -16 4 -6 8 -30 9 -53 2
-23 1 -36 -1 -29 -6 15 -39 16 -48 1 -4 -5 0 -18 9 -28 22 -24 20 -41 -5 -41
-20 0 -21 -4 -16 -49 6 -51 -4 -71 -35 -71 -12 0 -16 5 -11 18 4 13 2 13 -9
-3 -25 -32 -28 -118 -7 -144 11 -13 23 -19 30 -15 8 4 9 3 5 -4 -4 -7 -3 -12
2 -12 5 0 12 10 16 23 4 15 0 27 -15 39 -25 21 -34 58 -13 58 8 0 17 7 20 15
11 27 44 -2 44 -38 0 -18 5 -38 11 -44 6 -6 9 -23 7 -38 -3 -25 -7 -28 -50
-29 -26 -1 -50 -5 -55 -10 -4 -4 -7 -56 -6 -114 0 -59 1 -127 2 -151 0 -26 7
-51 17 -62 15 -17 18 -17 40 -2 19 12 22 19 13 29 -7 8 -7 14 -1 14 16 0 33
-26 38 -62 4 -23 16 -41 34 -53 34 -23 30 -35 -11 -35 -16 0 -29 -3 -29 -7 1
-20 18 -32 44 -30 27 2 30 -2 41 -43 6 -25 21 -66 32 -92 15 -33 18 -49 10
-57 -8 -8 -5 -11 10 -11 12 0 31 -12 42 -27 23 -31 24 -32 77 -82 22 -20 48
-41 59 -47 11 -6 28 -27 38 -47 15 -30 24 -37 47 -37 33 0 60 -23 60 -51 0
-10 5 -19 10 -19 6 0 10 -5 10 -11 0 -5 -4 -7 -10 -4 -5 3 -10 1 -10 -5 0 -18
20 -50 31 -50 6 0 7 5 4 10 -3 6 -4 19 0 29 5 16 12 19 43 14 48 -7 65 -23 25
-23 -27 0 -63 -24 -52 -34 8 -8 35 -9 52 -1 11 4 23 3 30 -4 8 -8 8 -11 -1
-11 -25 0 -30 -35 -15 -90 8 -30 15 -65 14 -77 0 -12 4 -25 9 -28 6 -3 11 -21
11 -38 1 -21 3 -25 6 -11 3 16 14 23 41 28 31 5 40 2 55 -17 l17 -22 19 23
c11 12 26 22 35 22 18 0 22 25 6 35 -13 8 -13 72 1 80 6 4 9 23 7 43 -1 20 2
37 8 39 19 6 30 -140 34 -427 0 -45 23 -90 37 -76 5 4 7 28 6 52 -1 25 3 42 8
39 5 -4 9 -12 9 -18 0 -7 19 -33 43 -58 79 -87 107 -124 107 -146 0 -12 9 -27
20 -33 11 -6 20 -15 20 -20 0 -5 11 -21 25 -36 14 -15 25 -33 25 -40 0 -7 5
-14 11 -16 7 -2 15 -40 19 -88 4 -47 13 -100 20 -118 7 -18 10 -47 6 -64 -4
-21 0 -40 14 -62 16 -27 19 -46 16 -127 -2 -51 -7 -119 -11 -149 -3 -30 -6
-62 -6 -70 1 -20 2 -197 2 -285 0 -38 4 -95 9 -125 6 -30 11 -67 12 -81 2 -21
7 -26 30 -26 35 0 44 -8 28 -28 -10 -12 -8 -16 11 -24 41 -15 83 -64 124 -145
23 -46 49 -83 62 -89 13 -5 25 -17 28 -26 10 -28 70 -86 121 -116 27 -15 56
-34 66 -42 12 -11 48 -15 135 -16 110 -2 122 0 175 26 31 15 61 27 65 27 5 0
19 14 31 30 13 17 26 30 31 30 4 0 8 -93 9 -207 2 -361 8 -460 32 -501 17 -28
19 -37 8 -43 -17 -9 -16 -157 1 -309 6 -58 13 -133 16 -166 2 -34 11 -77 20
-95 10 -18 19 -53 20 -78 2 -25 11 -68 22 -95 13 -35 15 -50 7 -53 -13 -4 -6
-43 7 -43 5 0 6 -18 3 -39 -3 -21 -1 -54 5 -72 12 -40 23 -279 14 -334 -6 -37
-6 -37 -22 -16 -12 15 -31 22 -70 26 -65 6 -116 -7 -162 -40 -44 -31 -75 -46
-119 -54 -20 -4 -34 -13 -32 -19 1 -7 -9 -17 -23 -22 -17 -6 -27 -20 -31 -40
-4 -16 -13 -30 -21 -30 -20 0 -231 -220 -235 -244 -2 -12 -16 -27 -33 -34 -54
-23 -60 -28 -76 -62 -9 -18 -24 -35 -34 -36 -9 -1 -23 -12 -31 -23 -27 -37
-45 -51 -70 -51 -36 0 -64 -18 -64 -39 0 -14 -5 -18 -19 -14 -15 4 -25 -5 -42
-39 -27 -54 -26 -53 -42 -40 -24 20 -57 2 -77 -43 -21 -45 -41 -60 -58 -43
-15 15 -40 3 -44 -22 -2 -11 -7 -21 -13 -21 -19 -2 -45 -20 -45 -33 0 -7 -11
-23 -25 -36 -20 -19 -27 -21 -40 -10 -19 16 -45 6 -45 -18 0 -27 -27 -47 -64
-47 -22 0 -33 -7 -43 -25 -16 -33 -40 -49 -63 -43 -12 3 -22 -1 -26 -11 -3 -9
-15 -16 -25 -16 -12 0 -21 -10 -25 -26 -8 -30 -57 -64 -85 -57 -16 5 -33 -5
-97 -58 -7 -6 -19 -8 -27 -6 -17 7 -42 -13 -47 -38 -3 -16 -11 -20 -42 -20
-26 0 -41 -5 -44 -15 -7 -21 -23 -30 -57 -30 -20 0 -41 -11 -66 -36 -35 -34
-39 -36 -54 -20 -16 16 -45 15 -90 -4 -32 -13 -123 -40 -137 -40 -7 0 -33 -10
-58 -22 -25 -12 -51 -20 -58 -19 -21 4 -83 -29 -77 -40 10 -15 -26 -23 -46
-11 -25 16 -44 15 -59 -3 -7 -8 -23 -15 -35 -15 -13 0 -26 -7 -29 -15 -5 -14
-9 -14 -34 -1 -31 16 -52 7 -52 -21 0 -10 -9 -12 -35 -7 -22 4 -35 2 -35 -4 0
-18 -71 -47 -79 -33 -11 16 -111 -7 -111 -26 0 -10 -10 -14 -33 -11 -27 2 -33
-1 -35 -19 -3 -18 -10 -23 -35 -24 -68 -2 -72 -4 -75 -26 -2 -15 -10 -23 -22
-23 -10 0 -21 -4 -24 -9 -3 -5 -25 -14 -50 -20 -33 -8 -45 -16 -50 -35 -3 -13
-35 -52 -70 -86 -73 -70 -110 -141 -104 -199 3 -20 -1 -50 -9 -68 -7 -18 -13
-36 -13 -41 0 -5 53 -9 118 -10 100 -1 127 3 187 23 38 14 82 34 97 45 15 11
31 20 35 20 4 0 28 16 52 35 24 19 52 35 61 35 10 0 24 7 31 17 8 9 38 27 67
39 28 13 52 28 52 34 0 5 11 10 25 10 14 0 33 8 44 19 16 16 95 35 156 36 11
0 31 7 45 15 14 8 50 15 80 16 135 5 168 12 430 89 99 29 139 47 145 64 4 13
13 17 30 13 17 -3 25 0 25 10 0 24 39 53 73 54 51 2 102 19 189 63 98 49 134
73 319 211 77 58 151 112 164 121 13 8 44 36 68 62 24 26 51 47 60 47 8 0 19
9 22 20 4 14 15 20 34 20 21 0 34 10 59 45 30 42 52 57 52 35 0 -21 38 -8 103
35 38 25 71 45 73 45 2 0 24 13 50 30 57 36 113 85 294 262 78 76 145 138 150
138 10 0 125 146 158 201 12 20 22 44 22 53 0 23 58 142 77 157 13 11 17 11
20 1 3 -6 8 -10 13 -7 21 13 34 -43 46 -191 4 -62 34 -199 43 -202 34 -12 45
-32 48 -88 2 -49 13 -104 36 -189 14 -51 40 -115 47 -115 20 0 54 -105 76
-240 3 -19 12 -42 20 -51 8 -8 14 -21 14 -28 0 -7 11 -36 24 -64 44 -96 56
-128 56 -142 0 -7 5 -17 11 -21 14 -8 59 16 59 32 0 6 7 14 15 18 8 3 15 12
15 21 0 8 6 15 14 15 8 0 16 7 20 15 3 8 12 15 21 15 8 0 15 5 15 10 0 17 29
11 50 -10 24 -24 58 -26 67 -5 6 18 -23 55 -43 55 -7 0 -15 4 -18 9 -4 5 11 7
35 4 l40 -6 -1 69 c-1 38 -1 91 -1 119 0 27 -6 63 -14 80 -7 16 -19 48 -25 70
-15 52 -72 186 -110 261 -16 33 -32 75 -36 94 -3 19 -14 62 -24 95 -56 182
-88 431 -95 730 -4 194 -13 284 -41 390 -9 33 -22 101 -29 150 -8 50 -18 110
-24 135 -28 130 -40 297 -40 591 -1 230 -5 326 -16 386 -10 52 -16 164 -19
324 -2 134 -9 289 -16 344 -6 55 -10 127 -8 160 l3 60 19 -40 c28 -59 46 -108
46 -128 0 -24 48 -197 60 -219 6 -10 10 -24 10 -32 0 -12 25 -41 95 -106 24
-23 65 -89 65 -106 0 -8 4 -22 9 -32 5 -9 25 -50 45 -91 32 -66 43 -78 93
-109 32 -19 85 -47 118 -63 33 -16 92 -49 130 -74 39 -25 77 -48 85 -52 8 -4
30 -17 48 -29 18 -13 47 -26 65 -29 18 -4 50 -15 72 -25 22 -10 57 -20 78 -23
20 -3 43 -9 50 -15 6 -5 30 -15 52 -22 52 -17 64 -26 82 -72 8 -20 23 -40 34
-43 10 -3 34 -20 54 -38 40 -35 128 -76 165 -77 14 0 46 -11 72 -25 26 -14 56
-25 67 -25 11 0 22 -4 26 -9 25 -41 225 -131 290 -131 35 0 48 -7 101 -58 119
-112 127 -118 195 -131 35 -7 73 -16 84 -20 11 -4 38 -4 60 1 46 11 139 -13
149 -38 3 -8 18 -14 34 -14 16 0 50 -7 76 -16 27 -10 62 -14 82 -11 18 3 36 1
39 -4 4 -5 22 -9 41 -9 19 0 52 -9 73 -19 29 -15 50 -19 92 -14 30 3 66 4 81
4 16 -1 37 8 48 19 16 16 28 19 65 13 28 -3 45 -2 45 5 0 16 29 23 49 10 20
-12 75 -3 66 11 -7 12 40 23 70 15 15 -4 39 0 58 9 18 9 43 14 55 10 12 -3 28
-1 35 5 8 7 40 7 99 1 78 -9 92 -8 130 10 24 10 56 37 73 59 16 22 43 48 58
59 15 10 42 41 60 69 18 28 51 72 75 99 41 46 42 47 42 20 0 -15 10 -41 22
-57 19 -28 20 -32 5 -42 -10 -8 -13 -17 -7 -26 5 -8 12 -63 16 -123 6 -100 8
-109 29 -117 31 -12 67 -128 38 -123 -18 4 -8 -190 13 -247 9 -25 19 -74 21
-110 5 -65 23 -100 50 -100 7 0 23 -11 35 -25 20 -23 28 -25 76 -21 59 5 97
25 107 56 9 27 51 36 84 18 14 -9 44 -21 66 -27 22 -7 46 -14 53 -17 9 -3 4
-12 -16 -29 -45 -38 -128 -154 -157 -219 -18 -40 -30 -56 -44 -56 -11 0 -23
-4 -26 -10 -3 -5 -14 -10 -24 -10 -10 0 -26 -9 -36 -20 -10 -11 -24 -20 -31
-20 -7 0 -27 -20 -43 -44 -17 -24 -34 -46 -38 -48 -8 -3 -52 -59 -92 -118 -26
-38 -41 -120 -22 -120 18 0 13 -24 -9 -38 -11 -7 -20 -22 -20 -35 0 -13 -5
-28 -11 -34 -20 -20 -1 -58 54 -110 56 -53 94 -120 108 -188 5 -22 11 -51 14
-65 3 -14 12 -59 20 -100 8 -41 18 -96 23 -122 5 -26 21 -63 36 -82 14 -19 26
-39 26 -45 0 -6 13 -25 28 -43 16 -18 38 -49 50 -70 13 -20 35 -41 52 -47 17
-5 35 -21 41 -35 6 -13 24 -30 38 -36 15 -6 40 -22 56 -36 17 -15 56 -44 88
-66 32 -22 66 -52 75 -68 17 -28 197 -130 253 -143 15 -4 55 -28 90 -54 80
-59 191 -133 200 -133 4 0 36 -17 70 -39 63 -37 64 -39 67 -86 2 -26 9 -57 17
-69 7 -11 17 -61 20 -111 4 -49 9 -93 11 -97 5 -9 105 -2 178 12 44 9 65 9 87
0 22 -9 32 -10 43 -1 7 6 21 9 30 5 21 -8 50 15 37 30 -6 7 -5 27 2 53 8 33
19 46 43 58 37 17 54 19 54 5 0 -5 13 -10 28 -10 16 0 37 -7 48 -15 32 -24 62
-18 80 16 l16 31 12 -24 c15 -28 46 -159 46 -193 0 -12 6 -28 14 -34 8 -7 17
-40 21 -74 4 -34 11 -66 15 -72 16 -21 59 -173 65 -229 3 -33 11 -66 17 -74
17 -20 20 -36 25 -122 3 -41 10 -82 18 -90 20 -24 34 -81 34 -145 0 -32 4 -71
10 -85 14 -39 34 -165 29 -181 -3 -8 1 -21 9 -30 15 -18 21 -199 10 -334 l-5
-70 42 -49 c36 -41 49 -49 87 -53 50 -6 89 9 133 51 17 15 34 22 48 19 13 -2
35 0 50 6 25 9 27 14 31 88 3 43 10 130 17 194 14 120 11 148 -30 299 -5 19
-14 81 -20 137 -5 56 -16 119 -24 140 -17 45 -42 160 -57 258 -5 39 -14 96
-18 128 -5 33 -20 74 -34 95 -13 20 -28 53 -31 72 -4 19 -16 87 -27 150 -22
132 -32 164 -54 187 -9 8 -38 48 -65 88 -27 40 -84 104 -126 141 -116 105
-124 123 -125 285 -1 88 -6 145 -15 167 -22 53 -74 339 -74 406 0 46 -7 76
-25 114 -14 29 -25 60 -25 69 0 9 -15 51 -34 93 -32 71 -96 311 -96 362 0 28
-70 167 -126 252 -21 32 -44 68 -51 80 -20 36 -206 219 -253 250 -47 31 -90
70 -90 82 0 4 36 4 80 1 43 -3 99 0 122 5 24 6 68 12 98 13 137 6 269 19 311
29 25 7 54 9 65 6 24 -9 94 7 115 26 8 8 33 14 55 14 22 0 49 7 60 15 10 8 33
15 49 15 17 0 50 7 75 16 54 19 75 22 261 30 143 6 147 6 165 -15 25 -29 57
-46 122 -61 28 -6 54 -16 57 -20 3 -5 46 -8 97 -9 75 0 97 -4 118 -20 15 -10
46 -25 69 -32 22 -7 46 -18 52 -26 6 -7 20 -13 31 -13 16 0 80 -30 128 -60 21
-13 177 -70 191 -70 29 0 138 -62 184 -103 27 -26 77 -60 110 -76 33 -17 85
-53 115 -81 30 -29 67 -58 82 -66 15 -8 46 -42 69 -77 24 -34 45 -64 49 -67 3
-3 16 -21 28 -41 12 -20 38 -49 57 -63 20 -15 35 -36 35 -47 0 -25 15 -54 41
-80 11 -11 22 -32 25 -48 3 -16 18 -42 34 -59 19 -21 29 -45 33 -81 3 -28 18
-70 32 -94 14 -24 25 -53 25 -64 0 -11 9 -28 19 -37 10 -9 22 -37 26 -62 7
-46 27 -66 48 -45 6 6 18 11 26 11 8 0 22 6 30 14 9 7 37 16 63 19 43 6 51 4
81 -22 18 -16 48 -32 68 -36 33 -6 35 -5 53 36 16 36 17 45 5 63 -9 15 -12 49
-10 114 2 84 1 94 -16 98 -24 7 -73 94 -73 131 0 16 -7 38 -15 49 -8 10 -15
31 -15 46 0 15 -11 44 -25 64 -14 20 -25 45 -25 56 0 11 -20 37 -44 59 -29 27
-48 54 -56 83 -6 24 -29 65 -51 92 -21 27 -46 60 -56 74 -9 14 -34 41 -55 61
-21 20 -38 41 -38 47 0 17 -201 218 -238 238 -72 41 -90 51 -161 99 -40 28
-108 68 -150 90 -42 23 -85 46 -96 52 -64 36 -164 75 -253 99 -29 8 -74 30
-99 49 -26 20 -58 38 -72 41 -14 3 -42 12 -61 19 -51 21 -137 43 -195 51 -27
3 -54 9 -60 12 -10 7 -25 10 -60 15 -12 2 -27 7 -35 12 -8 5 -19 10 -25 10 -5
1 -19 5 -30 9 -11 5 -44 17 -72 29 -29 11 -53 23 -53 27 0 3 -35 7 -77 8 -43
1 -85 3 -93 4 -8 1 -76 -1 -150 -5 -155 -8 -342 -48 -510 -108 -58 -20 -143
-49 -190 -64 -46 -15 -93 -33 -105 -40 -118 -73 -284 -136 -399 -151 -17 -2
-43 -16 -58 -31 l-29 -27 23 -9 c22 -8 22 -9 -11 -23 -30 -12 -36 -12 -50 0
-9 8 -41 24 -71 36 -30 12 -61 27 -68 33 -8 6 -59 12 -119 13 -58 2 -107 5
-110 8 -3 3 1 12 9 20 8 8 21 42 28 76 12 57 12 63 -7 87 -10 15 -31 36 -45
46 -24 18 -30 19 -60 6 -18 -8 -35 -14 -38 -14 -3 0 -25 -14 -49 -30 -80 -54
-84 -56 -126 -49 -22 4 -64 8 -94 10 -29 2 -55 5 -56 6 -3 3 -50 339 -60 428
-3 30 -10 80 -15 110 -9 53 -42 259 -55 347 -4 23 -15 52 -26 64 -10 12 -19
28 -19 35 0 15 -69 74 -87 74 -7 0 -18 10 -24 22 -9 17 -9 24 4 33 9 6 19 32
23 56 6 39 27 93 54 139 5 8 25 49 45 90 20 41 43 82 50 90 27 30 63 109 69
152 4 24 16 59 28 78 12 19 25 53 29 75 4 22 17 74 29 115 12 41 24 86 27 100
3 14 11 32 18 40 6 8 24 53 40 100 15 47 31 89 36 94 5 6 9 34 9 62 0 29 4 55
9 58 4 3 11 26 14 51 7 47 53 192 67 210 5 6 11 28 15 49 4 21 16 62 27 90 20
52 31 117 48 266 5 47 14 110 20 140 6 34 8 154 5 320 -10 481 -18 651 -34
692 -5 13 -12 57 -16 98 -4 41 -8 77 -10 80 -1 3 -6 37 -9 75 -4 39 -14 98
-24 133 l-17 63 -40 -3 -40 -3 -3 -59 -3 -59 -48 47 c-45 44 -48 50 -45 91 4
43 4 44 -33 54 -21 6 -66 11 -99 11 -61 0 -62 0 -68 -31 -3 -17 -6 -41 -6 -54
0 -18 -4 -21 -29 -17 -23 3 -31 11 -36 33 -4 16 -11 31 -16 34 -5 4 -9 18 -9
33 0 49 -13 57 -82 54 -183 -9 -330 -61 -428 -152 -30 -28 -70 -60 -88 -72
-41 -25 -42 -64 -2 -61 47 3 89 18 116 42 14 13 33 24 41 25 8 1 18 7 21 13
11 18 119 33 227 31 96 -1 102 0 130 26 26 24 30 25 44 11 15 -15 13 -19 -14
-41 -16 -13 -46 -29 -65 -35 -51 -17 -70 -37 -70 -75 0 -38 -54 -97 -81 -89
-9 3 -22 -1 -29 -10 -7 -8 -18 -15 -25 -15 -19 0 -23 -21 -12 -53 9 -27 23
-34 80 -39 l28 -3 -23 -31 c-13 -17 -43 -54 -67 -82 l-44 -50 -51 35 c-28 19
-71 55 -96 79 -25 24 -51 44 -57 44 -6 0 -20 -14 -31 -31 -19 -31 -19 -32 -1
-64 11 -18 56 -70 100 -115 71 -74 83 -82 100 -72 26 17 37 15 44 -7 7 -23 33
-35 49 -23 6 5 24 12 40 16 30 7 88 43 94 58 2 4 30 33 63 65 63 60 109 129
109 161 0 11 7 25 15 32 8 7 15 17 15 22 0 6 11 23 25 40 14 16 25 37 25 46 0
9 7 30 15 45 8 15 12 34 8 42 -9 24 19 8 49 -28 15 -18 38 -46 53 -64 24 -30
29 -32 75 -26 66 8 76 -2 78 -79 1 -35 6 -106 13 -157 6 -52 8 -118 5 -145
-10 -83 -18 -203 -21 -331 -1 -66 -5 -136 -8 -155 -2 -19 -8 -78 -11 -130 -4
-52 -11 -113 -16 -135 -5 -22 -11 -80 -14 -128 -5 -88 -22 -135 -61 -167 -8
-7 -15 -23 -15 -35 0 -12 -7 -28 -15 -35 -8 -7 -15 -19 -15 -26 0 -20 -31
-103 -81 -214 -23 -52 -52 -131 -64 -175 -23 -81 -70 -206 -105 -280 -10 -22
-28 -71 -41 -110 -12 -38 -28 -82 -35 -97 -8 -14 -14 -34 -14 -43 0 -9 -11
-31 -24 -48 -13 -18 -53 -90 -88 -162 -35 -71 -74 -148 -85 -170 -32 -60 -69
-144 -87 -197 -10 -25 -24 -52 -32 -58 -7 -7 -14 -19 -14 -27 0 -18 -57 -130
-70 -138 -6 -4 -22 -31 -35 -60 -13 -30 -41 -73 -62 -97 -22 -24 -43 -51 -46
-60 -4 -10 -13 -18 -21 -18 -7 0 -40 -30 -72 -66 -33 -37 -68 -77 -79 -89 -27
-30 -43 -54 -60 -92 -17 -36 -31 -48 -40 -33 -4 7 -29 9 -63 6 -87 -8 -104
-12 -147 -30 -22 -9 -72 -21 -113 -27 -76 -11 -106 -6 -182 29 -19 8 -63 21
-96 28 -62 13 -109 37 -167 85 -36 29 -135 69 -172 69 -13 0 -26 4 -29 9 -3 5
-25 5 -49 0 -68 -12 -117 7 -190 77 -51 50 -70 62 -106 67 -23 3 -50 12 -60
21 -10 9 -27 16 -39 16 -29 0 -106 42 -151 83 -20 18 -52 39 -71 46 -19 7 -51
22 -71 32 -20 10 -50 19 -67 19 -17 0 -34 4 -37 10 -3 5 -26 18 -51 29 -24 11
-47 28 -51 38 -38 103 -220 206 -398 228 -33 4 -64 10 -70 15 -5 4 -27 10 -47
13 -21 3 -63 23 -94 44 -92 63 -120 75 -209 94 -83 18 -126 49 -147 107 -9 26
-17 56 -17 67 -1 12 -23 45 -51 75 -27 30 -50 58 -50 62 0 4 -7 8 -15 8 -8 0
-15 4 -15 8 0 5 -11 14 -24 21 -16 9 -28 28 -36 60 -31 125 -47 167 -84 226
-23 35 -49 77 -58 92 -10 15 -32 47 -50 70 -18 23 -43 59 -56 80 -12 21 -39
65 -59 98 -36 59 -113 210 -113 221 0 3 -14 25 -30 49 l-30 44 22 12 c35 19
96 88 123 141 27 51 33 98 13 98 -6 0 -32 10 -56 21 -63 31 -149 22 -267 -27
-103 -42 -165 -47 -255 -20 -67 20 -72 23 -95 63 -10 17 -29 37 -41 44 -42 22
-87 89 -97 143 -5 28 -12 56 -17 61 -4 6 -15 34 -24 64 -9 30 -25 73 -35 95
-11 24 -22 74 -25 119 -3 43 -8 82 -11 87 -3 5 -3 33 1 62 l7 52 21 -45 c20
-41 24 -44 59 -43 21 1 45 8 54 16 14 14 13 20 -11 60 -46 80 -58 127 -45 181
8 33 20 55 40 69 33 25 62 79 53 102 -5 13 -1 15 24 10 22 -5 39 0 60 15 28
19 62 20 62 1 0 -5 3 -15 6 -24 4 -12 -6 -21 -39 -35 -27 -12 -52 -32 -65 -53
-26 -42 -43 -136 -36 -191 4 -24 2 -59 -4 -79 -8 -29 -7 -40 4 -49 18 -14 19
-109 2 -156 -13 -35 -3 -65 44 -135 10 -14 20 -41 22 -58 2 -18 10 -36 17 -41
8 -4 14 -14 14 -21 0 -7 12 -14 27 -16 16 -2 30 -11 33 -23 8 -23 17 -24 56
-3 16 8 38 12 48 9 22 -7 45 18 61 68 10 33 10 41 -4 56 -9 10 -16 24 -16 31
0 18 -37 -16 -53 -49 -10 -21 -21 -27 -53 -29 -41 -3 -41 -3 -47 35 -4 21 -18
66 -32 100 -23 58 -25 74 -26 245 -1 101 1 190 4 198 3 8 8 27 11 43 4 17 13
27 24 27 10 0 28 7 41 16 28 20 57 8 86 -37 24 -37 59 -53 85 -39 15 8 21 2
39 -40 25 -58 25 -61 6 -54 -19 8 -20 -19 -2 -34 7 -6 24 -34 37 -62 13 -27
29 -50 36 -50 13 0 30 -57 20 -67 -3 -4 -6 -1 -6 5 0 7 -9 12 -21 12 -26 0
-21 -21 9 -35 23 -10 42 -82 25 -94 -27 -17 -30 -46 -9 -93 18 -42 23 -47 46
-41 46 11 50 39 21 154 -10 41 -22 110 -25 154 -5 65 -13 95 -46 161 -22 45
-40 85 -40 90 0 4 -45 51 -99 104 -55 54 -106 113 -114 132 -22 52 -59 72
-121 63 -28 -4 -73 -8 -99 -10 -31 -2 -62 -12 -88 -29 -21 -15 -39 -24 -39
-21 0 20 37 56 72 70 23 9 55 27 71 41 26 22 37 24 131 24 69 0 108 -4 121
-14 11 -7 43 -21 72 -30 28 -10 68 -30 89 -47 20 -16 42 -29 48 -29 6 0 22
-12 35 -25 31 -33 50 -31 83 7 28 34 29 43 5 118 -6 19 -12 40 -13 45 -1 6 -5
18 -9 28 -6 15 -1 17 44 17 65 0 96 16 200 103 72 60 88 80 118 144 55 115 69
314 30 418 -9 22 -18 62 -22 89 l-7 49 69 -9 c158 -19 206 -7 281 69 28 29 71
88 95 132 70 127 115 194 145 212 15 10 53 41 84 69 33 30 66 52 80 52 35 1
150 27 174 40 30 16 54 72 54 128 0 45 -3 51 -55 102 -42 40 -54 58 -50 73 4
10 11 19 17 19 21 0 121 94 134 127 17 39 37 42 52 8 7 -16 20 -25 33 -25 13
0 39 -18 61 -41 22 -23 42 -38 45 -35 4 3 16 0 27 -7 12 -8 38 -17 59 -21 64
-12 486 -16 493 -5 3 6 19 7 35 4 20 -5 39 0 63 14 18 12 41 21 51 21 10 0 26
7 36 16 9 8 48 19 85 25 38 5 80 13 94 18 14 5 50 15 80 21 30 7 65 18 77 26
12 8 33 14 46 14 29 0 93 25 102 40 3 5 24 10 46 10 21 0 39 4 39 9 0 5 52 8
115 8 105 0 119 2 166 26 28 15 58 27 67 27 9 0 25 9 37 20 l21 20 34 -25 c19
-14 39 -25 45 -25 5 0 30 -11 55 -24 33 -17 69 -25 132 -30 79 -5 93 -4 135
16 56 27 124 28 170 5 40 -21 158 -28 182 -11 32 23 87 -1 160 -69 37 -34 78
-69 91 -77 13 -8 29 -22 36 -30 8 -8 37 -41 66 -74 l53 -58 2 -77 c0 -42 6
-89 13 -106 14 -38 79 -105 101 -105 9 0 22 -7 29 -15 7 -8 19 -15 27 -15 8 0
26 -13 41 -29 15 -16 36 -31 47 -33 18 -3 20 -12 23 -88 2 -47 9 -105 16 -130
11 -39 17 -45 42 -48 16 -2 33 -8 38 -13 6 -5 25 -9 43 -9 27 0 37 6 53 33 11
17 20 42 20 55 0 34 13 21 50 -54 23 -45 46 -74 70 -89 60 -38 65 -50 29 -65
-45 -19 -181 -148 -200 -190 -9 -19 -26 -44 -38 -54 -11 -11 -21 -31 -21 -45
-1 -14 -7 -37 -15 -51 -18 -31 -19 -60 -2 -60 14 -1 97 -77 97 -90 0 -20 38
-29 94 -21 43 6 64 15 84 35 15 15 39 35 53 44 83 54 106 74 129 112 44 75 75
104 125 119 61 18 87 42 125 118 17 34 35 65 40 68 6 4 10 12 10 20 0 8 18 42
41 77 160 248 189 295 189 311 0 10 9 54 21 98 16 61 19 95 14 140 -6 50 -3
66 16 106 17 35 25 75 30 152 9 118 7 133 -27 209 -13 29 -24 58 -24 65 0 7
-11 35 -24 62 -14 28 -27 58 -30 68 -4 11 -15 21 -26 24 -12 3 -27 18 -35 33
-8 15 -36 40 -62 55 -51 30 -123 97 -123 114 0 6 -11 13 -24 17 -13 3 -34 17
-47 30 -12 13 -29 24 -36 24 -21 0 -52 21 -107 72 l-51 47 -1 83 c-2 120 -17
185 -53 220 -16 16 -33 43 -36 59 -4 17 -13 33 -20 35 -15 6 -80 100 -89 129
-4 13 -33 32 -79 52 -92 41 -94 41 -206 48 -96 5 -157 -8 -245 -52 -41 -21
-52 -6 -76 112 -13 58 -37 134 -59 181 -33 70 -53 95 -154 193 -169 165 -204
182 -375 182 -81 -1 -108 3 -130 16 -15 10 -29 21 -32 25 -3 4 -22 14 -42 22
-20 9 -45 27 -56 41 -13 16 -30 25 -48 25 -16 0 -47 11 -69 25 -26 16 -55 24
-82 25 -28 0 -43 4 -43 13 0 7 -12 25 -27 39 -38 37 -58 62 -65 80 -11 29
-113 106 -193 146 -67 34 -93 42 -160 47 -67 5 -87 2 -121 -14z m196 -70 c0
-5 -9 -11 -19 -14 -14 -3 -18 -1 -14 9 6 15 33 19 33 5z m-82 -13 c-3 -7 -13
-13 -23 -13 -10 0 -20 6 -22 13 -3 7 5 12 22 12 17 0 25 -5 23 -12z m-98 -23
c0 -8 -4 -15 -9 -15 -5 0 -11 7 -15 15 -3 9 0 15 9 15 8 0 15 -7 15 -15z m250
-16 c0 -5 -4 -9 -10 -9 -5 0 -10 7 -10 16 0 8 5 12 10 9 6 -3 10 -10 10 -16z
m-1081 -94 c6 3 11 13 11 21 0 15 16 19 24 6 11 -18 -15 -35 -75 -46 -35 -7
-75 -9 -89 -6 -22 6 -19 8 18 14 24 5 48 16 54 26 11 18 13 18 29 -2 10 -11
23 -17 28 -13z m1007 6 l49 -20 -51 4 c-28 2 -63 9 -78 15 -15 5 -46 10 -69
10 -32 0 -38 3 -27 11 21 14 119 3 176 -20z m-896 9 c13 -8 13 -10 -2 -10 -9
0 -20 5 -23 10 -8 13 5 13 25 0z m-270 -20 c0 -5 -4 -10 -9 -10 -6 0 -13 5
-16 10 -3 6 1 10 9 10 9 0 16 -4 16 -10z m-125 -440 c-3 -5 -11 -10 -16 -10
-6 0 -7 5 -4 10 3 6 11 10 16 10 6 0 7 -4 4 -10z m1475 -14 c0 -3 -4 -8 -10
-11 -5 -3 -10 -1 -10 4 0 6 5 11 10 11 6 0 10 -2 10 -4z m-2840 -319 c0 -2
-17 -19 -37 -38 l-38 -34 34 38 c33 34 41 42 41 34z m1974 -66 l70 -6 -60 -30
c-32 -16 -76 -47 -97 -69 l-39 -39 -64 68 c-36 37 -62 70 -59 74 10 10 99 19
139 14 22 -3 71 -8 110 -12z m593 -2 c72 2 137 0 143 -4 7 -4 -4 -24 -32 -54
-83 -92 -108 -132 -108 -178 0 -15 -4 -34 -9 -42 -7 -11 -12 -3 -21 30 -17 61
-84 173 -120 199 -40 29 -56 31 -200 34 -82 1 -132 6 -145 14 -16 11 14 12
170 6 105 -5 249 -7 322 -5z m-2798 -43 c-25 -20 -79 -95 -79 -109 0 -8 -6
-17 -14 -20 -7 -3 -16 -22 -20 -41 -4 -20 -10 -36 -13 -36 -18 0 -73 44 -73
60 0 29 89 130 115 130 12 0 28 7 35 15 7 9 19 14 27 11 8 -3 17 2 20 11 5 13
8 14 11 3 3 -7 -1 -18 -9 -24z m1739 -16 c1 -45 -7 -49 -33 -20 -10 11 -24 20
-31 20 -8 0 -28 9 -46 20 l-33 20 71 0 72 0 0 -40z m1756 -24 c43 -12 62 -14
72 -5 13 11 84 8 151 -6 34 -8 65 -46 77 -97 14 -61 148 -93 225 -53 30 15 71
20 71 9 0 -9 -40 -60 -93 -117 -26 -29 -64 -86 -85 -127 -31 -63 -38 -87 -40
-151 -3 -60 0 -82 13 -103 10 -14 23 -26 29 -26 7 0 19 -12 26 -26 8 -14 27
-34 42 -45 25 -19 58 -70 58 -92 0 -17 -52 -67 -70 -67 -8 0 -40 9 -70 20 -43
16 -78 20 -155 20 -137 -2 -131 -2 -117 12 7 7 12 21 12 32 0 11 9 29 19 40
19 20 19 25 5 96 -8 41 -24 91 -34 111 -16 30 -19 59 -20 198 -2 173 3 191 52
207 15 4 18 12 14 30 -5 20 -3 24 15 24 14 0 19 5 17 18 -2 13 -19 19 -66 26
-110 16 -174 -29 -257 -179 -33 -59 -35 -111 -12 -230 15 -78 16 -173 1 -229
-5 -22 -11 -26 -28 -22 -11 4 -52 9 -89 13 -64 6 -68 8 -62 27 22 74 37 175
31 206 -9 49 -68 126 -123 160 -25 16 -61 47 -80 70 -44 51 -40 70 23 131 25
24 63 60 83 79 20 19 47 36 61 37 66 6 162 21 168 28 9 9 63 2 136 -19z
m-3405 -33 c-7 -21 -23 -48 -36 -61 -13 -13 -23 -27 -23 -32 0 -11 -60 -54
-66 -47 -10 10 42 89 105 159 31 35 36 30 20 -19z m386 37 c-3 -5 -10 -10 -16
-10 -5 0 -9 5 -9 10 0 6 7 10 16 10 8 0 12 -4 9 -10z m1078 -61 c-3 -12 -9
-17 -15 -11 -10 10 0 44 12 37 5 -3 6 -14 3 -26z m-567 -74 c-4 -37 -2 -63 6
-78 7 -12 14 -29 15 -37 2 -8 6 -29 9 -46 8 -42 -11 -53 -37 -20 -11 14 -27
26 -35 26 -8 0 -31 11 -51 25 -25 16 -45 22 -60 19 -13 -4 -23 -2 -23 3 0 14
72 78 103 91 15 6 32 23 37 36 7 20 20 31 39 35 2 1 1 -24 -3 -54z m1441 3
c29 0 60 3 70 6 26 8 37 -2 71 -69 18 -37 32 -82 35 -118 5 -56 5 -58 -21 -67
-15 -6 -34 -14 -42 -20 -8 -5 -42 -24 -75 -41 -134 -70 -234 -138 -320 -219
-123 -115 -175 -140 -294 -140 -105 0 -130 8 -153 47 l-17 30 37 11 c20 6 53
14 73 17 20 3 44 14 54 25 10 11 24 20 31 20 7 0 32 22 55 50 23 27 50 52 60
55 10 3 20 19 24 35 4 16 15 32 26 35 10 4 19 15 19 25 0 10 11 27 25 38 14
11 25 24 25 30 0 5 7 23 15 38 8 16 15 37 15 48 0 10 35 53 78 97 76 77 78 78
117 72 22 -3 63 -5 92 -5z m1129 -12 c8 -32 -22 -66 -58 -66 -35 0 -37 22 -3
48 14 11 25 25 25 31 0 21 30 11 36 -13z m-1944 -16 c8 -19 20 -30 33 -30 28
0 41 -11 50 -39 l7 -24 -72 5 c-89 7 -105 20 -95 77 6 37 10 41 35 41 22 0 31
-7 42 -30z m1191 -82 c7 -32 30 -90 42 -107 21 -29 141 -141 157 -146 22 -8
31 -38 23 -74 -10 -45 -33 -59 -100 -61 -122 -3 -124 -3 -138 33 -8 17 -21 38
-30 46 -20 16 -22 41 -4 41 23 0 50 112 45 188 -3 37 -8 75 -13 85 -4 10 -3
17 3 17 5 0 12 -10 15 -22z m636 -45 c-1 -21 -5 -51 -9 -68 -7 -30 -10 -28
-24 19 -6 20 13 86 24 86 6 0 9 -17 9 -37z m-3436 17 c29 0 20 -38 -13 -55
-43 -22 -50 -19 -50 26 0 38 2 41 23 35 12 -3 30 -6 40 -6z m4237 -120 c12 -8
12 -10 -4 -16 -11 -4 -24 0 -34 10 -15 15 -15 16 3 16 11 0 27 -4 35 -10z
m-84 -32 c-26 -37 -30 -50 -18 -67 7 -9 18 -31 26 -48 8 -18 20 -33 27 -33 10
0 10 -14 -3 -97 -2 -17 -118 104 -118 123 0 20 36 89 62 119 27 31 46 33 24 3z
m-3931 -65 c-7 -26 -9 -256 -3 -312 2 -18 -2 -25 -17 -27 -44 -6 -132 -32
-160 -47 -27 -13 -95 -94 -95 -112 0 -14 43 -45 62 -45 11 0 31 9 45 20 22 17
28 18 42 7 9 -8 24 -17 34 -20 9 -4 17 -14 17 -23 0 -38 -34 -128 -63 -167
-39 -50 -177 -146 -209 -144 -12 1 -54 17 -93 37 -60 30 -73 41 -93 82 -21 41
-24 62 -24 157 1 159 15 188 191 381 23 25 48 57 56 71 8 15 21 29 30 32 8 4
15 12 15 19 0 8 12 19 28 26 15 7 50 26 77 42 28 16 61 30 75 30 14 0 32 5 40
10 8 5 23 10 34 10 15 0 17 -5 11 -27z m1054 -73 c10 0 34 -16 54 -35 31 -30
35 -39 30 -69 -3 -18 2 -58 11 -89 9 -30 16 -64 16 -74 0 -41 54 -104 125
-145 39 -22 79 -48 90 -58 32 -27 96 -61 105 -55 4 3 15 -6 24 -19 12 -19 27
-25 68 -29 29 -3 75 -9 101 -14 l48 -8 -63 -24 c-35 -14 -69 -29 -76 -34 -15
-12 -207 -3 -245 12 -16 6 -39 11 -51 11 -42 0 -99 52 -125 113 -22 55 -22 59
-7 97 9 22 16 50 16 62 0 19 -4 20 -49 15 l-49 -6 -40 87 c-60 129 -81 227
-70 320 2 21 5 20 36 -17 18 -23 42 -41 51 -41z m3245 38 c-4 -7 -21 -30 -37
-50 -19 -24 -31 -51 -32 -74 -2 -27 -9 -39 -30 -50 -15 -8 -30 -14 -32 -14 -3
0 -3 21 -1 48 5 45 18 68 81 133 19 22 63 27 51 7z m-4831 -55 c-4 -10 -29
-40 -56 -67 -27 -27 -56 -64 -63 -83 -8 -18 -18 -33 -23 -33 -6 0 -12 -10 -16
-22 -6 -23 -9 -31 -40 -105 -20 -48 -19 -47 -43 -33 -35 20 -119 37 -174 36
l-56 -1 -6 39 c-4 22 -2 44 4 51 8 10 7 16 -6 23 -16 9 -15 13 5 56 13 25 27
48 32 52 5 3 9 16 9 30 0 13 2 24 4 24 2 0 11 2 19 6 11 4 16 -7 21 -45 4 -28
10 -52 15 -55 4 -3 22 7 40 23 32 29 34 61 4 61 -24 0 -9 25 17 28 14 2 29 -3
36 -13 9 -12 19 -15 31 -10 10 4 43 8 74 10 30 1 65 7 77 14 11 6 34 11 51 11
16 0 33 5 36 10 10 16 15 11 8 -7z m977 -70 c0 -34 -12 -63 -26 -63 -20 0 -26
17 -19 50 7 34 45 44 45 13z m1920 -102 c0 -5 12 -13 28 -19 15 -5 52 -33 82
-61 30 -29 67 -57 83 -63 39 -14 34 -25 -18 -32 -53 -8 -65 -3 -65 28 0 15
-17 38 -50 66 -52 45 -87 90 -70 90 5 0 10 -4 10 -9z m-177 -131 c10 -16 24
-30 31 -30 8 0 16 -9 19 -19 4 -16 -11 -29 -77 -67 -44 -25 -101 -57 -126 -70
-48 -25 -152 -55 -160 -46 -3 2 1 7 9 10 8 3 24 15 36 28 12 13 27 24 32 24
17 0 46 39 40 54 -4 10 2 16 21 18 21 2 28 9 30 31 3 24 12 32 35 28 4 -1 13
12 18 28 17 48 67 54 92 11z m-3244 -34 c-9 -8 -10 -7 -5 7 3 10 7 24 7 30 1
7 3 4 6 -7 3 -10 -1 -23 -8 -30z m1909 2 c5 -7 20 -31 32 -52 18 -34 20 -43 9
-63 -7 -13 -16 -23 -19 -23 -4 0 -26 -18 -49 -40 -46 -44 -52 -79 -26 -130 14
-28 14 -30 -7 -44 -48 -31 -150 -16 -255 38 -32 17 -103 89 -103 105 0 11 54
22 101 21 23 0 39 5 42 14 3 7 26 17 52 20 40 7 48 12 60 39 7 18 23 41 35 52
12 11 28 32 36 47 12 22 22 28 48 28 18 0 38 -6 44 -12z m3775 -148 l42 -1
-42 -25 c-24 -14 -43 -33 -43 -41 0 -22 40 -105 61 -129 19 -21 19 -22 -11
-85 -16 -35 -30 -69 -30 -75 0 -12 16 -18 80 -34 19 -5 52 -13 72 -18 l38 -10
22 47 c12 25 23 48 25 50 1 2 16 -2 33 -9 29 -12 30 -14 30 -80 0 -72 -23
-181 -45 -216 -7 -11 -35 -29 -62 -39 -26 -10 -63 -27 -81 -38 -27 -16 -45
-19 -88 -14 -67 7 -99 31 -129 96 -13 27 -28 51 -33 55 -6 3 -18 28 -28 54 -9
26 -27 58 -39 72 -13 14 -28 41 -34 60 -10 33 -8 43 33 125 24 50 55 101 69
114 22 20 24 26 14 42 -10 17 -6 25 33 63 25 24 51 42 58 40 8 -2 32 -4 55 -4z
m-5466 -79 c40 -45 92 -146 100 -194 4 -25 -5 -69 -31 -154 -52 -167 -50 -163
-90 -163 -19 0 -38 -4 -41 -10 -11 -17 -43 -11 -50 10 -3 11 -12 20 -20 20
-18 0 -55 48 -55 71 0 10 -6 22 -14 26 -25 15 -51 141 -33 160 5 4 16 -2 25
-13 17 -22 92 -41 92 -23 0 5 9 9 20 9 11 0 20 -4 20 -10 0 -20 31 -9 40 14 5
13 16 29 26 34 15 8 15 12 -7 41 -12 17 -31 31 -40 31 -11 0 -19 9 -21 22 -2
13 -15 29 -32 36 -26 13 -28 17 -22 52 3 22 11 51 16 65 9 23 13 25 47 19 26
-4 48 -18 70 -43z m996 3 c10 -13 31 -48 46 -77 15 -29 41 -77 58 -107 36 -65
49 -125 32 -146 -17 -20 -46 -17 -52 6 -7 25 -43 26 -50 1 -3 -14 -14 -19 -46
-19 -53 -1 -70 -14 -77 -63 -6 -33 -9 -37 -21 -27 -12 10 -13 7 -8 -15 6 -23
4 -26 -9 -21 -19 7 -59 -23 -50 -38 3 -5 1 -14 -5 -21 -5 -7 -14 -35 -18 -62
-8 -46 -7 -52 17 -71 43 -36 130 -22 130 22 0 17 -7 25 -26 30 -23 6 -25 10
-19 43 4 20 15 45 26 57 10 11 19 23 19 27 0 4 12 21 28 38 26 30 30 31 86 26
82 -7 91 -19 69 -87 -10 -30 -17 -61 -18 -68 0 -18 -87 -95 -110 -98 -11 -1
-23 -3 -27 -3 -5 -1 -8 -8 -8 -17 0 -11 -6 -14 -20 -9 -14 4 -27 -2 -44 -20
-20 -22 -32 -26 -65 -24 -30 2 -44 -2 -54 -15 -13 -18 -15 -18 -71 0 -41 14
-73 33 -108 67 l-51 49 7 67 c11 128 56 221 107 221 46 0 259 229 259 279 0
10 7 32 15 47 8 16 15 37 15 46 0 22 20 14 43 -18z m1597 6 c0 -5 -4 -10 -10
-10 -5 0 -10 5 -10 10 0 6 5 10 10 10 6 0 10 -4 10 -10z m3260 -40 c0 -15 38
-50 54 -50 31 0 75 -110 56 -139 -10 -18 -30 -5 -30 19 0 46 -35 90 -97 122
-60 31 -85 56 -44 43 11 -3 22 -1 26 5 8 13 35 13 35 0z m-840 -34 c0 -8 8
-17 18 -19 14 -4 14 -5 1 -6 -9 0 -24 8 -34 19 -16 18 -16 20 -2 20 10 0 17
-6 17 -14z m-5920 -32 c0 -27 11 -28 64 -8 10 4 16 1 16 -9 0 -9 15 -20 35
-27 19 -6 37 -20 40 -31 7 -21 35 -25 52 -8 17 17 37 -25 24 -49 -14 -27 43
-217 101 -337 78 -161 120 -217 198 -262 76 -45 93 -83 36 -83 -18 0 -45 -9
-59 -20 -33 -26 -40 -25 -33 4 3 13 0 37 -7 53 -17 41 -78 123 -91 123 -16 0
-71 54 -105 104 -42 61 -97 87 -196 93 -70 4 -87 2 -137 -21 -43 -19 -58 -31
-58 -46 0 -11 -4 -20 -8 -20 -4 0 -6 16 -4 35 2 19 8 35 13 35 5 0 9 11 9 24
0 13 7 27 16 30 9 3 14 15 12 28 -2 17 -9 22 -25 20 -27 -4 -29 6 -5 25 12 10
14 16 5 19 -16 7 -17 50 -2 60 8 5 6 10 -5 16 -18 10 -22 43 -6 53 6 3 10 -1
10 -9 0 -9 9 -21 20 -28 15 -10 20 -24 20 -60 0 -27 4 -48 9 -48 15 0 41 58
28 63 -6 2 -8 11 -3 23 7 18 8 18 20 1 23 -30 38 3 35 75 -3 75 15 88 52 39
29 -39 45 -39 52 -1 9 41 -1 60 -29 60 -17 0 -24 6 -24 19 0 30 -17 34 -24 6
-7 -28 -21 -32 -33 -12 -4 8 -23 17 -42 20 -27 6 -32 4 -27 -8 3 -8 1 -17 -4
-20 -19 -11 -10 -42 15 -55 41 -22 49 -95 10 -95 -14 0 -20 7 -20 22 0 13 -6
28 -13 35 -7 7 -12 9 -12 5 0 -7 -12 1 -46 32 -15 14 -15 36 1 74 5 13 2 17
-13 17 -25 0 -42 -20 -42 -51 -1 -166 13 -456 23 -464 7 -6 12 -41 12 -90 1
-82 21 -201 36 -211 5 -3 9 -18 9 -33 0 -34 17 -51 50 -51 14 0 31 -5 38 -12
17 -17 52 18 52 53 0 21 4 27 15 23 21 -8 30 38 16 89 -6 23 -12 60 -13 82 -3
34 0 40 18 43 15 2 38 -15 80 -61 33 -34 73 -73 90 -85 17 -12 34 -30 36 -40
8 -28 -45 -112 -124 -195 -70 -74 -75 -77 -118 -76 -25 0 -70 8 -100 17 -46
15 -55 22 -58 44 -2 20 -10 27 -34 32 -16 3 -34 3 -40 0 -5 -3 -17 -3 -26 1
-15 6 -14 8 8 20 14 8 33 14 43 15 13 0 17 8 17 34 0 20 -6 36 -14 39 -8 3
-21 26 -31 50 -9 25 -25 47 -35 50 -28 7 -99 194 -84 219 9 14 24 -1 24 -23 0
-11 5 -29 11 -40 8 -16 13 -18 25 -8 8 6 14 20 14 31 0 14 5 18 15 14 8 -3 15
-1 15 4 0 5 -9 12 -20 15 -23 7 -27 45 -5 45 8 0 15 -4 15 -10 0 -5 5 -10 11
-10 7 0 8 7 4 18 -12 31 -15 82 -5 82 15 0 12 33 -5 56 -14 19 -14 19 -16 -1
-1 -11 -1 -23 0 -27 1 -11 -7 -10 -30 2 -26 15 -36 -12 -18 -48 16 -34 21 -72
8 -72 -33 0 -61 79 -38 106 6 7 8 18 4 24 -3 5 -2 10 4 10 7 0 8 16 5 44 -4
27 -2 46 5 50 7 4 11 0 11 -12 0 -10 8 -27 19 -36 18 -16 20 -15 40 20 22 37
21 63 -3 83 -10 9 -12 21 -5 49 6 28 4 41 -7 53 -14 15 -13 21 7 60 45 89 85
127 141 135 17 2 33 6 36 9 3 3 16 5 29 5 18 0 23 -5 23 -26z m-705 -24 c-3
-5 -10 -10 -16 -10 -5 0 -9 5 -9 10 0 6 7 10 16 10 8 0 12 -4 9 -10z m-86
-214 c9 -10 9 -20 0 -40 -12 -25 -13 -25 -31 -10 -18 17 -24 45 -11 57 11 11
30 8 42 -7z m1996 -26 c3 -5 23 -10 43 -10 20 -1 48 -7 62 -15 14 -8 37 -14
53 -15 31 0 32 -2 12 -55 -21 -59 -20 -209 2 -246 10 -16 23 -29 31 -29 14 0
43 -60 35 -73 -3 -5 -18 -6 -34 -3 -15 3 -31 1 -34 -5 -4 -5 -16 -7 -26 -4
-11 4 -26 1 -34 -5 -8 -7 -26 -9 -40 -6 -16 4 -25 2 -25 -6 0 -9 -3 -9 -12 0
-19 19 -49 14 -55 -8 -6 -22 -42 -27 -60 -9 -9 9 -18 8 -36 -4 -35 -23 -59
-24 -87 -4 -22 15 -26 16 -36 2 -16 -22 -34 -18 -34 8 0 12 -3 32 -6 44 -5 19
0 23 33 32 89 24 154 140 213 379 11 41 23 52 35 32z m5768 -70 c4 -4 10 -49
13 -99 5 -89 4 -94 -23 -129 -15 -20 -38 -45 -50 -55 -27 -22 -92 -113 -143
-201 -35 -60 -37 -61 -79 -61 -39 -1 -49 5 -87 43 -24 24 -47 54 -50 67 -3 13
-15 25 -26 28 -11 3 -17 10 -13 16 6 11 72 44 150 76 51 21 97 74 125 144 70
179 82 195 139 185 20 -4 40 -10 44 -14z m-7783 -42 c0 -16 -3 -19 -11 -11 -6
6 -8 16 -5 22 11 17 16 13 16 -11z m3450 -38 c0 -5 -4 -10 -10 -10 -5 0 -10 5
-10 10 0 6 5 10 10 10 6 0 10 -4 10 -10z m-60 -60 c0 -5 -4 -10 -10 -10 -5 0
-10 5 -10 10 0 6 5 10 10 10 6 0 10 -4 10 -10z m-3380 -380 c0 -5 -7 -10 -16
-10 -8 0 -12 5 -9 10 3 6 10 10 16 10 5 0 9 -4 9 -10z m2378 -38 c6 -18 -63
-15 -78 3 -12 14 -8 16 30 13 24 -2 45 -9 48 -16z m-186 -38 c-3 -26 1 -33 21
-38 13 -3 40 -18 59 -33 20 -16 50 -36 67 -45 19 -10 31 -25 31 -37 0 -11 5
-23 10 -26 7 -4 10 -41 9 -91 -2 -75 -5 -89 -33 -132 -39 -61 -101 -136 -145
-176 -50 -46 -131 -173 -131 -207 0 -34 -13 -44 -30 -24 -7 8 -18 15 -24 15
-6 0 -22 9 -36 20 l-25 20 35 31 c19 17 55 41 80 54 44 23 133 108 156 149 43
77 54 107 57 166 6 87 -11 167 -43 210 -14 19 -34 48 -44 63 -10 16 -40 43
-67 59 -27 17 -49 35 -49 39 0 8 50 17 85 15 16 -1 19 -7 17 -32z m635 -10
c12 -33 -65 -82 -91 -57 -7 7 62 72 77 73 4 0 10 -7 14 -16z m-2951 -35 c3 -6
17 -8 30 -5 27 7 33 -8 8 -18 -26 -10 -39 -7 -52 14 -7 11 -8 20 -3 20 6 0 13
-5 17 -11z m2004 -33 c19 -10 43 -29 53 -42 10 -13 26 -24 35 -24 25 0 107
-80 122 -117 18 -48 5 -118 -30 -155 -16 -16 -30 -33 -32 -37 -3 -7 -174 -128
-233 -165 -25 -16 -50 -19 -139 -20 l-109 0 -34 39 c-18 21 -34 48 -34 59 -1
12 -2 45 -3 74 l-1 53 55 20 c72 25 84 24 112 -10 27 -34 64 -55 80 -45 6 4
36 10 67 13 53 6 56 8 59 36 9 79 -45 163 -126 196 -45 18 -66 21 -135 17 -45
-3 -98 -12 -117 -21 -19 -8 -53 -20 -75 -27 -46 -14 -78 -47 -106 -109 -16
-36 -18 -58 -14 -140 2 -53 9 -111 14 -130 11 -36 49 -96 91 -144 14 -16 25
-33 25 -38 0 -4 -27 -30 -60 -56 -33 -27 -65 -59 -71 -72 -7 -12 -17 -28 -23
-34 -17 -17 -14 34 3 58 7 11 21 46 30 78 14 48 15 67 5 124 -7 40 -22 80 -37
102 -25 35 -157 121 -186 121 -7 0 -19 7 -26 15 -7 8 -20 15 -29 15 -9 0 -28
7 -43 14 -15 8 -51 17 -79 20 -54 6 -69 12 -69 25 0 5 20 6 45 3 33 -3 50 0
63 12 10 8 34 21 53 27 48 16 107 63 158 126 44 54 61 65 61 38 0 -9 12 -18
30 -21 18 -4 30 -13 30 -22 0 -23 45 21 85 84 30 45 39 51 85 62 36 8 57 9 71
2 13 -7 39 -7 81 0 139 22 251 21 298 -4z m-2004 -93 c-10 -10 -19 5 -10 18 6
11 8 11 12 0 2 -7 1 -15 -2 -18z m636 -148 c25 0 44 -3 42 -6 -7 -12 49 -28
134 -40 46 -6 82 -13 80 -14 -2 -2 -34 -6 -73 -9 -113 -9 -157 -21 -210 -56
-60 -41 -61 -42 -79 -105 -20 -70 -7 -199 27 -275 21 -46 101 -117 138 -123
19 -3 47 -9 62 -13 16 -3 38 -2 50 3 12 6 41 19 65 28 32 14 42 23 42 41 0 31
-45 81 -80 89 -17 4 -30 10 -30 15 0 5 -16 14 -35 20 -19 6 -36 19 -39 28 -10
31 -10 122 -1 131 17 17 176 15 217 -3 21 -9 47 -16 59 -16 74 0 201 -80 215
-134 10 -40 -21 -95 -100 -181 -79 -85 -106 -102 -106 -65 0 32 -35 24 -80
-18 -23 -22 -43 -52 -46 -70 -7 -36 -34 -48 -126 -56 -42 -4 -60 -1 -69 10 -7
8 -18 13 -25 10 -7 -3 -29 6 -49 20 -20 13 -42 24 -49 24 -8 0 -26 16 -40 35
-15 19 -33 35 -40 35 -17 0 -69 70 -95 127 -6 13 -19 42 -31 64 -13 29 -18 54
-15 78 3 20 2 79 -3 131 -7 74 -5 103 6 129 7 19 11 46 9 60 -6 27 12 61 31
61 6 0 26 14 44 31 32 29 35 30 93 22 33 -4 81 -8 107 -8z m-751 -214 c-7 -11
-4 -22 10 -37 22 -23 16 -59 -8 -50 -8 3 -18 6 -23 6 -7 0 -7 44 -1 114 1 5 8
3 16 -4 10 -8 12 -17 6 -29z m2695 -136 c-9 -20 -13 -47 -10 -60 3 -13 1 -26
-5 -29 -6 -4 -11 0 -11 8 0 25 -19 18 -26 -9 -6 -24 -27 -34 -38 -17 -3 5 6
25 19 45 14 20 25 40 25 45 0 4 11 18 25 30 14 12 26 30 26 39 1 16 2 16 6 1
2 -9 -3 -33 -11 -53z m-2666 16 c0 -11 5 -23 10 -26 6 -3 10 -16 10 -29 0 -12
5 -27 12 -34 17 -17 1 -15 -43 6 -21 9 -39 24 -39 32 0 8 -3 25 -6 37 -6 21
-4 22 49 32 4 0 7 -8 7 -18z m-65 -91 c3 -5 1 -10 -4 -10 -6 0 -11 5 -11 10 0
6 2 10 4 10 3 0 8 -4 11 -10z m2375 -100 c0 -5 -4 -10 -9 -10 -6 0 -13 5 -16
10 -3 6 1 10 9 10 9 0 16 -4 16 -10z m232 -12 c-7 -7 -12 -8 -12 -2 0 14 12
26 19 19 2 -3 -1 -11 -7 -17z m-1126 -185 c-10 -57 -26 -103 -36 -103 -5 0
-16 12 -24 27 -13 26 -12 30 21 70 20 24 38 43 40 43 3 0 2 -17 -1 -37z m-86
-374 c0 -11 -4 -18 -10 -14 -5 3 -7 12 -3 20 7 21 13 19 13 -6z m-15 -297
c-12 -13 -17 12 -17 90 -1 133 16 154 20 24 1 -60 0 -111 -3 -114z m-629 150
c6 -4 16 -29 24 -55 12 -46 12 -49 -9 -63 -20 -15 -31 -51 -11 -39 12 7 13
-15 2 -30 -4 -5 -14 -11 -22 -11 -8 -1 -21 -3 -29 -5 -25 -7 -25 30 0 39 19 7
20 10 6 15 -10 4 -17 16 -17 27 0 15 7 20 25 20 22 0 45 24 45 47 0 5 -17 17
-37 27 -29 14 -34 20 -22 27 17 11 30 11 45 1z m204 -172 c0 -5 -4 -10 -10
-10 -5 0 -10 5 -10 10 0 6 5 10 10 10 6 0 10 -4 10 -10z m449 -124 c1 -15 -2
-16 -14 -6 -16 13 -20 51 -8 64 8 8 20 -25 22 -58z m981 -11 c0 -8 -2 -15 -4
-15 -2 0 -6 7 -10 15 -3 8 -1 15 4 15 6 0 10 -7 10 -15z m-250 -170 c0 -8 -4
-15 -9 -15 -13 0 -22 16 -14 24 11 11 23 6 23 -9z m-421 -477 c24 -21 49 -38
55 -38 6 0 17 -9 24 -20 13 -22 10 -23 -80 -35 l-46 -6 0 45 c1 30 -5 53 -15
64 -10 10 -17 27 -17 37 0 20 2 19 79 -47z m665 -114 c3 -9 6 -27 6 -40 0 -14
6 -37 14 -52 17 -35 30 -146 16 -137 -6 4 -23 9 -38 11 -15 3 -35 12 -44 21
-25 23 -44 10 -74 -48 -19 -38 -26 -67 -25 -106 0 -66 -18 -71 -54 -13 -14 22
-32 40 -41 40 -9 0 -34 16 -57 35 -50 43 -90 51 -170 35 -73 -14 -97 -25 -97
-45 0 -8 -11 -30 -24 -50 -31 -45 -25 -62 22 -68 38 -5 125 -33 152 -49 8 -5
23 -11 33 -14 13 -5 17 -18 17 -59 0 -36 -6 -60 -17 -74 -17 -20 -20 -20 -97
-6 -49 9 -83 20 -88 29 -7 13 -12 13 -28 3 -28 -17 -56 2 -52 37 2 20 -2 26
-16 26 -23 0 -27 37 -18 168 2 28 9 59 16 67 17 21 50 87 50 102 0 15 56 18
65 4 10 -18 157 0 207 25 57 29 60 33 48 74 -5 19 -9 35 -7 36 1 2 52 8 112
14 79 8 117 17 135 30 31 23 46 25 54 4z m-208 -776 c-9 -49 -8 -125 4 -202 5
-38 7 -72 4 -77 -2 -4 5 -13 16 -19 12 -6 20 -21 20 -35 0 -28 -12 -32 -30
-10 -7 8 -9 15 -6 15 4 0 -1 14 -11 30 -9 17 -25 30 -35 30 -9 0 -20 5 -23 10
-3 6 -14 10 -23 10 -10 0 -23 9 -30 20 -8 14 -23 20 -46 20 -29 0 -33 3 -29
20 4 14 0 20 -12 20 -12 0 -16 -7 -13 -27 4 -33 -21 -42 -46 -18 -9 9 -16 14
-16 10 0 -4 -7 1 -16 10 -13 13 -64 135 -64 153 0 12 102 -7 118 -22 25 -22
39 -20 18 2 -15 18 -14 19 26 18 32 -1 48 -7 61 -23 28 -34 47 -29 47 12 0 23
5 35 14 35 7 0 21 11 30 25 9 14 24 25 32 25 13 0 15 -7 10 -32z m-715 -147
c-6 -10 -17 -24 -26 -31 -13 -11 -19 -11 -32 3 -9 9 -15 18 -12 19 29 18 66
34 72 31 4 -2 3 -12 -2 -22z m6579 -2211 c0 -5 -2 -10 -4 -10 -3 0 -8 5 -11
10 -3 6 -1 10 4 10 6 0 11 -4 11 -10z m-388 -204 c29 -19 108 -103 108 -115 0
-5 15 -18 33 -28 17 -11 83 -69 145 -129 66 -64 124 -111 139 -114 14 -3 29
-12 33 -20 4 -8 24 -49 45 -90 20 -41 54 -137 75 -215 21 -77 50 -166 64 -198
14 -32 26 -68 26 -80 0 -31 26 -113 45 -139 8 -13 15 -43 15 -69 0 -26 7 -60
15 -75 8 -16 15 -43 15 -60 0 -17 4 -44 10 -60 5 -16 16 -83 25 -149 8 -66 23
-152 33 -191 19 -75 19 -75 -21 -167 -23 -53 -31 -49 -41 26 -6 37 -13 50 -34
61 -15 8 -56 41 -92 75 -44 40 -83 67 -121 80 -31 12 -73 32 -93 46 -20 14
-39 25 -41 25 -10 0 -143 90 -156 106 -8 9 -39 28 -69 41 -30 14 -64 33 -75
43 -11 10 -31 21 -45 25 -26 8 -110 70 -168 124 -18 17 -44 34 -56 37 -13 3
-28 16 -35 30 -6 13 -15 24 -21 24 -5 0 -10 7 -10 15 0 8 -11 17 -25 21 -24 6
-66 58 -100 124 -8 16 -27 41 -41 55 -15 15 -42 56 -62 93 -77 145 -177 261
-274 316 -47 26 -57 39 -39 51 5 3 12 19 16 35 4 19 17 36 33 44 15 8 40 28
56 45 16 16 42 33 57 36 20 5 29 13 29 26 0 22 9 24 44 8 19 -9 29 -9 39 -1
15 13 51 6 84 -15 24 -16 56 -71 67 -117 4 -17 14 -35 22 -40 8 -6 17 -25 20
-41 2 -17 7 -37 10 -45 3 -8 10 -55 15 -105 10 -104 55 -249 91 -297 14 -18
37 -56 51 -84 14 -27 39 -65 56 -83 17 -18 31 -36 31 -40 0 -4 18 -22 41 -40
30 -25 44 -30 52 -22 6 6 20 11 31 11 12 0 33 15 48 34 37 46 58 49 109 16 78
-50 85 -49 97 16 12 59 9 79 -13 70 -28 -10 -44 27 -38 85 7 68 -7 97 -76 165
-28 27 -51 54 -51 61 0 6 -6 18 -14 25 -7 8 -21 30 -31 48 -10 19 -23 42 -30
50 -7 8 -16 28 -19 45 -4 16 -18 52 -30 80 -13 27 -31 73 -40 100 -9 28 -26
67 -39 87 -52 87 -103 157 -113 157 -6 1 -28 15 -49 31 -21 17 -46 30 -56 30
-28 0 -23 12 14 35 17 11 38 32 45 47 12 26 21 30 137 51 26 4 66 -7 97 -27z
m-8831 -2004 c-12 -22 -41 -48 -41 -36 0 8 40 54 47 54 2 0 -1 -8 -6 -18z
m9689 -197 c0 -8 -4 -17 -10 -20 -6 -4 -10 5 -10 20 0 15 4 24 10 20 6 -3 10
-12 10 -20z"/>
<path d="M5531 13106 c-11 -13 -5 -76 8 -76 10 0 41 56 41 74 0 20 -33 21 -49
2z"/>
<path d="M4640 12454 c0 -17 22 -14 28 4 2 7 -3 12 -12 12 -9 0 -16 -7 -16
-16z"/>
<path d="M5467 8527 c-6 -42 1 -57 25 -57 15 0 18 4 13 18 -4 9 -10 27 -12 40
-8 35 -20 35 -26 -1z"/>
<path d="M5570 8113 c0 -5 4 -15 10 -23 11 -18 25 -7 17 15 -6 15 -27 21 -27
8z"/>
<path d="M5726 8112 c-3 -6 -1 -14 5 -17 15 -10 25 3 12 16 -7 7 -13 7 -17 1z"/>
<path d="M5750 8049 c0 -5 5 -7 10 -4 6 3 10 8 10 11 0 2 -4 4 -10 4 -5 0 -10
-5 -10 -11z"/>
<path d="M3922 12478 c-18 -18 -15 -40 6 -36 9 2 18 13 20 26 4 24 -7 29 -26
10z"/>
<path d="M10535 11628 c-162 -99 -330 -223 -377 -277 -19 -22 -39 -41 -44 -41
-5 0 -22 -20 -37 -45 -16 -25 -34 -45 -40 -45 -7 -1 -28 -14 -47 -30 -19 -17
-42 -30 -52 -30 -22 0 -32 -37 -19 -72 8 -21 20 -28 68 -38 32 -7 85 -13 118
-14 33 -1 73 -7 90 -14 26 -12 31 -11 42 4 7 9 14 21 15 25 2 5 30 11 64 13
58 5 110 23 164 57 14 9 69 43 123 77 54 34 104 62 110 62 7 0 20 8 29 18 9 9
24 23 34 31 16 14 15 17 -20 47 -46 39 -41 64 13 64 21 0 46 -7 57 -15 25 -19
54 -19 54 0 0 8 7 15 16 15 14 0 16 7 8 48 -4 26 -8 75 -9 109 0 42 -4 64 -13
68 -15 5 -52 -13 -94 -47 -27 -21 -28 -21 -48 -3 -11 10 -20 29 -20 41 0 19
-5 24 -27 23 -16 -1 -38 -6 -51 -12 -16 -8 -26 -7 -34 1 -15 15 -15 16 -73
-20z"/>
<path d="M3720 11640 c0 -5 5 -10 11 -10 5 0 7 5 4 10 -3 6 -8 10 -11 10 -2 0
-4 -4 -4 -10z"/>
<path d="M9265 11348 c-4 -24 -7 -88 -5 -143 1 -55 2 -151 1 -213 -1 -98 2
-114 17 -119 9 -4 22 -13 27 -20 6 -8 25 -16 43 -19 27 -4 32 -2 32 15 0 26
35 28 62 4 17 -15 18 -13 19 78 4 442 6 429 -56 429 -18 0 -46 7 -61 15 -52
27 -71 20 -79 -27z"/>
<path d="M7690 11357 c-8 -8 -163 -19 -286 -22 -100 -2 -113 -4 -133 -24 -21
-21 -21 -24 -7 -40 9 -10 16 -24 16 -32 0 -30 83 -86 152 -103 36 -9 70 -16
75 -15 4 1 15 0 23 -4 74 -29 285 -49 344 -32 25 7 28 6 23 -9 -10 -26 9 -55
33 -49 11 3 20 12 20 19 0 17 14 18 41 3 11 -6 18 -16 16 -23 -3 -7 -2 -17 1
-23 10 -15 149 -73 176 -73 20 -1 20 -1 -4 -15 -14 -8 -34 -14 -45 -15 -11 0
-36 -11 -55 -23 -19 -13 -69 -36 -110 -51 -41 -16 -88 -34 -105 -41 -16 -7
-50 -21 -75 -31 -25 -10 -63 -29 -85 -44 -22 -14 -60 -38 -85 -52 -25 -15 -72
-50 -105 -80 -33 -30 -100 -85 -150 -124 -83 -64 -148 -124 -185 -170 -66 -82
-70 -103 -20 -124 34 -14 91 1 200 52 35 17 76 34 90 38 14 4 32 11 41 14 11
5 27 -10 59 -56 46 -67 123 -148 141 -148 5 0 24 -16 42 -35 34 -38 79 -55
140 -55 21 0 47 -5 57 -10 12 -6 21 -6 25 -1 3 6 27 13 53 16 26 4 61 13 79
21 17 8 42 14 56 14 14 0 37 4 50 9 14 5 49 12 79 15 115 10 331 131 446 248
23 23 53 54 67 68 14 14 35 44 47 68 11 24 27 46 34 49 8 3 11 9 8 14 -3 5 3
24 14 42 33 55 34 81 7 142 -14 32 -29 74 -35 96 -6 23 -17 39 -26 39 -8 0
-19 11 -24 25 -5 14 -21 30 -35 37 l-25 11 30 15 c21 10 31 24 36 48 3 19 9
34 13 34 16 -1 35 -20 38 -41 5 -35 22 -49 60 -49 23 0 35 5 39 18 3 9 14 40
25 67 10 28 21 67 25 88 l6 37 -49 0 -50 0 -17 82 c-9 45 -19 85 -24 89 -21
20 -179 35 -342 33 -171 -2 -286 11 -380 45 -26 10 -462 26 -470 18z m870
-699 c0 -4 -20 -37 -45 -74 -25 -36 -59 -93 -76 -127 -47 -96 -130 -190 -196
-223 -21 -11 -65 -33 -98 -50 -33 -17 -71 -37 -85 -43 -14 -7 -41 -20 -60 -30
-19 -10 -62 -21 -96 -24 -55 -6 -64 -4 -95 19 -19 14 -52 35 -73 46 -22 11
-68 49 -103 84 -54 54 -63 67 -53 79 7 8 17 15 22 15 6 0 28 14 50 32 52 40
107 78 116 78 7 0 91 31 147 55 50 20 100 35 122 35 11 0 26 7 33 15 7 8 21
15 31 15 19 0 19 -11 -2 -132 -5 -31 -7 -68 -3 -82 6 -26 12 -29 59 -29 14 0
41 1 60 2 l35 1 0 51 c0 65 -18 136 -43 172 -10 16 -18 30 -16 32 9 7 83 35
95 35 7 0 37 11 66 25 29 13 71 26 93 28 63 6 115 4 115 -5z"/>
<path d="M9666 11326 c4 -24 -25 -68 -41 -62 -9 3 -11 -36 -8 -167 4 -176 13
-231 38 -241 8 -3 15 -14 15 -25 0 -11 4 -22 8 -25 10 -6 62 40 62 55 0 6 4 8
8 5 5 -3 26 -1 46 5 33 9 37 13 32 37 -5 24 -11 275 -7 310 0 6 7 12 15 12 19
0 24 18 19 58 -4 26 -10 32 -29 32 -14 0 -27 7 -30 15 -5 12 -10 13 -20 4 -21
-17 -101 -23 -107 -7 -2 7 -3 5 -1 -6z"/>
<path d="M3546 11045 c-3 -8 -1 -15 4 -15 6 0 10 7 10 15 0 8 -2 15 -4 15 -2
0 -6 -7 -10 -15z"/>
<path d="M9811 10851 c-21 -16 -22 -26 -26 -176 -2 -88 0 -243 5 -345 5 -102
11 -282 13 -400 4 -217 10 -298 27 -380 18 -84 22 -115 30 -210 7 -95 26 -174
50 -220 8 -14 19 -50 25 -80 7 -30 16 -63 20 -72 11 -27 -12 -22 -42 8 -14 14
-39 27 -55 30 -16 2 -44 12 -62 24 -19 11 -39 20 -46 20 -8 0 -21 6 -29 13
-29 24 -94 39 -122 29 -15 -6 -46 -8 -69 -5 -35 5 -46 2 -57 -13 -7 -10 -32
-28 -55 -39 -34 -17 -43 -28 -54 -65 -15 -49 -18 -119 -6 -135 18 -25 131
-103 162 -113 130 -39 257 -49 485 -36 55 3 104 10 110 15 5 5 17 9 28 9 22 0
83 45 92 68 3 9 9 42 12 74 5 52 2 62 -30 120 -29 52 -37 80 -46 154 -5 51
-17 108 -25 128 -9 21 -18 61 -22 89 -8 70 -39 204 -70 304 -34 112 -44 179
-44 308 0 61 -5 128 -10 150 -5 22 -15 81 -21 130 -12 102 -29 172 -54 230
-12 28 -21 93 -29 214 l-11 175 -26 7 c-17 4 -33 1 -48 -10z"/>
<path d="M3640 10766 c0 -8 7 -16 15 -20 10 -4 15 1 15 14 0 11 -7 20 -15 20
-8 0 -15 -6 -15 -14z"/>
<path d="M3646 10701 c-4 -5 -2 -12 3 -15 5 -4 12 -2 15 3 4 5 2 12 -3 15 -5
4 -12 2 -15 -3z"/>
<path d="M3766 10641 c-8 -12 3 -41 15 -41 5 0 9 7 9 15 0 8 0 18 1 22 1 12
-19 15 -25 4z"/>
<path d="M4130 10186 c0 -9 5 -16 10 -16 6 0 10 4 10 9 0 6 -4 13 -10 16 -5 3
-10 -1 -10 -9z"/>
<path d="M5776 10125 l-38 -34 7 -88 c9 -114 49 -208 95 -224 16 -6 30 -15 30
-20 0 -21 39 -6 73 29 56 57 47 82 -28 82 -49 0 -59 24 -60 156 -2 149 -11
161 -79 99z"/>
<path d="M5996 9881 c-4 -7 -5 -15 -2 -18 9 -9 19 4 14 18 -4 11 -6 11 -12 0z"/>
<path d="M4492 9787 c-20 -12 -21 -14 -6 -29 13 -13 22 -14 45 -6 34 12 37 23
10 38 -24 12 -21 12 -49 -3z"/>
<path d="M4390 9760 c0 -13 18 -22 24 -11 3 5 -1 11 -9 15 -8 3 -15 1 -15 -4z"/>
<path d="M4490 9688 c0 -21 17 -41 29 -34 7 5 7 13 -2 26 -13 23 -27 26 -27 8z"/>
<path d="M4760 9430 c0 -5 5 -10 10 -10 6 0 10 5 10 10 0 6 -4 10 -10 10 -5 0
-10 -4 -10 -10z"/>
<path d="M8871 9375 c-54 -19 -103 -63 -96 -86 4 -10 2 -19 -3 -19 -6 0 -12
-11 -16 -23 -3 -13 -18 -36 -33 -52 -16 -15 -28 -30 -28 -34 0 -3 -17 -38 -38
-78 -49 -94 -88 -199 -81 -218 6 -15 44 -22 44 -7 0 4 23 25 51 47 87 68 139
117 139 131 0 8 6 11 15 8 8 -4 15 -18 15 -34 0 -61 58 -160 94 -160 45 0 112
99 135 200 5 23 19 48 30 56 16 12 18 19 11 38 -5 13 -7 38 -5 55 2 17 -1 33
-6 37 -6 4 -6 11 2 20 9 11 6 16 -16 24 -34 13 -75 13 -75 -1 0 -6 -12 -9 -27
-7 -24 2 -29 9 -36 43 -16 74 -23 79 -76 60z"/>
<path d="M4869 9224 c-1 -10 0 -23 1 -29 1 -5 3 -18 4 -28 0 -9 6 -17 11 -18
13 0 19 28 9 49 -4 9 -8 20 -8 24 -2 17 -16 19 -17 2z"/>
<path d="M9737 8622 c-10 -10 -17 -26 -17 -35 0 -9 -5 -19 -11 -23 -7 -4 -10
-38 -7 -101 5 -90 7 -96 34 -119 33 -27 58 -29 93 -10 14 8 31 12 38 9 31 -12
39 14 32 106 -10 122 -44 184 -84 151 -15 -13 -29 -8 -31 11 -1 5 -2 14 -3 19
-2 16 -27 12 -44 -8z"/>
<path d="M9200 8317 c-149 -51 -173 -62 -285 -127 -64 -37 -114 -60 -131 -60
-7 0 -24 -4 -39 -10 -22 -8 -24 -13 -15 -31 9 -15 8 -24 -1 -36 -11 -12 -10
-17 4 -24 9 -6 17 -19 17 -30 0 -18 -4 -20 -30 -14 -34 8 -40 -7 -11 -27 33
-24 30 -59 -9 -95 l-35 -33 33 0 c48 0 89 45 84 91 -1 4 18 9 41 12 27 4 93
34 176 81 73 41 165 84 204 97 40 13 83 29 97 36 29 15 66 17 75 4 3 -5 20
-14 38 -19 17 -5 58 -17 90 -27 41 -12 65 -14 85 -8 17 6 75 5 157 -2 167 -14
319 -4 387 27 42 19 48 25 42 43 -12 32 -9 98 4 103 7 2 12 12 12 23 0 21 -21
25 -50 9 -14 -7 -25 -7 -38 1 -15 9 -29 9 -63 -2 -46 -15 -196 -17 -392 -5
-95 6 -98 6 -106 -16 -9 -23 -9 -23 -16 5 -4 15 -13 27 -20 27 -8 0 -26 11
-42 24 -53 44 -91 42 -263 -17z"/>
<path d="M4860 8070 c0 -5 5 -10 11 -10 5 0 7 5 4 10 -3 6 -8 10 -11 10 -2 0
-4 -4 -4 -10z"/>
<path d="M4980 8065 c-10 -12 -10 -19 -2 -27 15 -15 43 8 35 28 -7 18 -17 18
-33 -1z"/>
<path d="M9517 8044 c-1 -1 -38 -5 -82 -8 -55 -4 -105 -15 -160 -37 -44 -17
-98 -32 -120 -34 -22 -3 -65 -6 -95 -9 -30 -3 -66 -8 -80 -12 -14 -3 -41 -9
-61 -11 -26 -3 -41 -12 -50 -30 -18 -34 -5 -52 67 -88 58 -29 62 -30 199 -29
178 2 245 8 254 23 6 8 15 9 32 2 80 -32 277 -39 327 -12 32 17 170 16 190 -1
42 -37 132 42 132 116 0 60 -14 81 -71 105 -57 25 -121 33 -155 21 -13 -5 -37
-4 -58 2 -25 8 -56 8 -101 2 -37 -6 -88 -7 -116 -4 -27 4 -50 5 -52 4z"/>
<path d="M8587 7983 c-12 -12 -7 -22 8 -17 8 4 15 10 15 15 0 11 -14 12 -23 2z"/>
<path d="M9040 6345 c-8 -9 -8 -15 -2 -15 12 0 26 19 19 26 -2 2 -10 -2 -17
-11z"/>
<path d="M8798 6323 c-43 -51 -60 -85 -49 -96 19 -19 14 -94 -9 -110 -24 -17
-41 -57 -50 -122 -4 -27 -11 -61 -14 -75 -11 -47 -16 -189 -6 -195 6 -3 10 1
10 9 0 9 5 16 11 16 5 0 9 -8 8 -17 -1 -10 2 -27 6 -37 6 -13 4 -21 -3 -24
-18 -6 27 -64 46 -60 9 2 20 17 23 33 l7 30 1 -27 c0 -16 7 -28 14 -28 6 0 22
-3 35 -6 19 -5 22 -2 22 20 0 14 5 26 10 26 6 0 10 -7 10 -15 0 -8 9 -15 20
-15 13 0 20 7 20 19 0 38 34 34 41 -4 3 -14 13 -21 37 -23 28 -3 32 0 32 21 0
16 7 26 20 30 16 4 20 14 21 49 2 57 4 79 17 157 6 36 16 102 23 146 7 47 19
89 30 103 10 13 16 29 13 35 -3 7 -32 24 -65 39 -54 26 -59 30 -53 53 7 27
-12 36 -22 10 -9 -22 -16 -20 -90 30 -73 49 -93 54 -116 28z"/>
<path d="M10040 5110 c-12 -12 -26 -20 -33 -19 -25 3 -36 -2 -41 -19 -3 -10
-19 -26 -36 -35 -16 -10 -56 -42 -87 -72 -32 -30 -65 -57 -74 -60 -24 -8 -86
-114 -93 -160 -15 -95 -21 -297 -11 -355 8 -44 26 -113 45 -175 11 -33 24 -88
30 -122 6 -34 18 -85 26 -115 9 -29 17 -63 19 -75 1 -13 8 -30 15 -38 7 -9 25
-39 39 -68 59 -117 173 -267 203 -267 21 0 34 -22 43 -78 8 -48 32 -102 46
-102 5 0 9 -4 9 -10 0 -13 55 -88 117 -161 29 -34 57 -78 63 -99 13 -47 35
-68 44 -43 6 15 9 15 16 3 5 -9 5 -19 -2 -27 -7 -9 3 -30 37 -80 26 -36 51
-77 56 -90 5 -13 15 -23 22 -23 8 0 19 -11 25 -25 8 -16 20 -25 35 -25 35 0
39 -10 17 -38 -22 -27 -27 -62 -8 -62 20 0 78 24 78 32 0 4 5 8 12 8 6 0 19 7
28 15 17 15 79 21 164 15 68 -5 78 10 71 114 -5 75 -8 83 -39 116 -19 19 -55
76 -81 125 -25 50 -70 124 -100 165 -30 41 -54 80 -54 86 -1 6 -17 29 -36 50
-19 21 -41 46 -49 54 -7 8 -19 26 -26 39 -6 13 -36 57 -66 98 -29 41 -56 85
-60 96 -4 12 -37 60 -73 107 -122 156 -191 276 -191 334 0 19 -6 55 -14 78 -8
24 -17 59 -20 79 -4 21 -23 67 -42 104 -48 90 -73 170 -74 230 0 46 3 52 43
87 23 21 45 38 49 38 17 0 80 106 88 149 5 26 16 67 24 91 19 56 13 82 -27
105 -18 10 -38 25 -45 32 -20 19 -59 16 -82 -7z"/>
<path d="M6846 5111 c-4 -7 -5 -15 -2 -18 9 -9 19 4 14 18 -4 11 -6 11 -12 0z"/>
<path d="M6985 5108 c-11 -7 -31 -14 -45 -15 -32 -4 -81 -23 -100 -39 -8 -6
-31 -14 -50 -17 -51 -8 -69 -12 -76 -20 -4 -4 -16 -7 -26 -7 -11 0 -16 -5 -13
-10 4 -6 1 -18 -6 -26 -10 -12 -7 -28 16 -84 15 -38 36 -77 47 -86 10 -10 18
-24 18 -33 0 -9 17 -34 38 -56 20 -22 52 -65 71 -95 41 -66 93 -143 101 -150
9 -7 63 -101 77 -133 13 -28 47 -71 91 -110 12 -11 22 -28 22 -37 0 -21 31
-50 53 -50 23 0 39 -34 24 -49 -9 -10 -8 -11 6 -6 14 6 17 2 17 -21 1 -33 31
-74 55 -74 18 0 65 -47 65 -65 0 -6 -19 -18 -42 -25 -52 -15 -84 -27 -122 -48
-16 -8 -47 -15 -70 -16 -29 -1 -59 -12 -106 -42 -82 -52 -106 -64 -132 -69
-11 -3 -46 -24 -76 -47 -77 -58 -99 -72 -152 -88 -49 -15 -100 -52 -195 -139
-34 -31 -76 -69 -95 -86 -19 -16 -52 -50 -73 -75 -30 -36 -44 -45 -72 -45 -18
-1 -40 -7 -48 -14 -13 -10 -13 -16 -2 -38 8 -15 13 -29 12 -32 -2 -3 -9 -18
-17 -34 -12 -24 -11 -29 8 -50 13 -14 22 -37 22 -57 1 -19 1 -109 1 -200 1
-91 1 -223 2 -295 0 -71 -1 -179 -3 -240 -2 -96 0 -111 15 -120 13 -7 19 -7
22 2 4 12 47 9 83 -5 8 -3 36 -4 62 -3 43 3 49 0 58 -23 11 -30 25 -34 34 -10
4 10 14 14 26 11 15 -4 20 0 20 14 0 23 38 26 46 4 8 -21 21 -19 27 5 4 16 14
20 45 20 23 0 44 -4 47 -10 3 -5 17 -10 31 -10 21 0 24 5 24 35 0 31 3 35 25
35 16 0 25 6 25 15 0 9 11 20 25 25 14 5 25 13 25 18 0 15 78 53 85 42 9 -15
25 -2 18 16 -8 22 26 54 57 54 30 0 61 -29 66 -62 3 -13 7 -39 10 -58 2 -19
10 -51 16 -71 7 -27 7 -42 -2 -58 -9 -17 -9 -26 1 -38 8 -9 14 -45 14 -92 1
-71 15 -155 37 -210 6 -15 5 -28 -1 -34 -12 -12 -2 -77 15 -98 8 -8 14 -33 14
-55 0 -22 7 -50 16 -62 14 -21 21 -60 28 -167 2 -22 11 -57 20 -77 17 -39 21
-78 9 -78 -5 0 -18 -3 -30 -6 -21 -6 -23 -3 -23 39 0 60 -21 79 -54 48 -18
-17 -35 -22 -77 -22 -48 1 -143 -5 -166 -10 -4 -1 -15 1 -24 5 -10 4 -30 -1
-50 -13 -19 -12 -44 -21 -56 -21 -13 0 -46 -15 -75 -33 -43 -27 -60 -33 -90
-29 -32 3 -44 -1 -73 -27 -20 -17 -44 -31 -53 -31 -10 0 -34 -16 -52 -35 -23
-24 -42 -35 -57 -33 -27 4 -83 -48 -83 -76 0 -12 -13 -32 -30 -46 -17 -14 -30
-34 -30 -48 0 -25 -63 -127 -102 -166 -10 -10 -18 -26 -18 -36 0 -29 -24 -30
-76 -4 -26 13 -53 24 -61 24 -7 0 -13 5 -13 10 0 6 -9 10 -20 10 -12 0 -31 11
-44 25 -14 15 -34 25 -51 25 -31 0 -120 52 -129 75 -3 8 -14 15 -24 15 -29 0
-134 58 -162 90 -27 30 -68 45 -85 30 -7 -6 -24 1 -48 21 -20 17 -41 28 -46
25 -14 -9 -33 21 -26 43 12 38 -5 89 -33 100 -15 6 -52 25 -82 42 -30 18 -65
38 -78 44 -13 7 -28 20 -35 28 -7 9 -25 18 -42 21 -16 3 -41 10 -55 15 -14 5
-46 15 -72 21 -27 7 -48 17 -48 21 0 5 -8 9 -17 9 -35 0 -65 25 -78 63 -13 37
-12 39 11 47 24 10 33 30 13 30 -5 0 -8 4 -5 9 7 11 56 21 56 11 0 -4 21 -4
47 1 40 8 48 7 60 -11 19 -27 33 -25 33 5 0 19 7 26 28 31 15 4 32 13 38 21
10 11 13 9 18 -12 6 -25 29 -34 41 -15 3 6 15 10 25 10 10 0 26 8 35 17 10 9
29 17 44 18 14 1 57 2 94 3 55 2 69 5 73 20 11 32 29 67 44 83 33 34 106 87
125 91 27 4 31 52 11 121 -13 45 -56 241 -56 255 0 3 31 2 70 -2 l70 -6 6 27
c10 47 11 49 19 21 6 -23 13 -28 40 -28 37 0 45 15 45 90 0 64 -9 74 -48 55
-17 -9 -35 -21 -38 -27 -4 -7 -9 -7 -13 1 -5 8 -20 7 -54 -3 -25 -7 -48 -11
-51 -8 -3 3 -14 -2 -24 -12 -11 -9 -25 -14 -33 -11 -16 6 -89 304 -98 400 l-6
60 -68 -3 c-65 -2 -68 -1 -77 24 -10 25 -11 25 -35 10 -28 -18 -71 -21 -80 -5
-5 7 -15 5 -31 -5 -13 -9 -31 -15 -41 -14 -10 1 -38 -3 -63 -11 -132 -38 -152
-43 -166 -37 -8 3 -22 2 -32 -3 -42 -23 -172 -60 -186 -55 -10 4 -33 -5 -56
-21 -22 -15 -56 -30 -76 -32 -20 -2 -59 -15 -86 -29 -28 -14 -56 -23 -64 -20
-7 3 -16 1 -19 -4 -4 -6 -11 -10 -17 -10 -7 0 -8 16 -4 48 4 26 10 82 14 124
4 43 13 83 20 90 6 6 12 33 12 60 0 37 -4 50 -19 58 -14 7 -22 7 -26 0 -4 -7
-16 -1 -32 14 -13 14 -31 22 -38 19 -19 -7 -65 94 -65 144 0 51 -6 58 -73 83
-44 17 -65 32 -85 61 -15 21 -34 39 -42 39 -8 0 -28 14 -44 30 -16 17 -33 30
-37 30 -4 0 -13 15 -20 33 -10 30 -14 32 -49 29 -21 -2 -41 1 -44 7 -11 17
-56 14 -56 -4 0 -33 -100 -42 -137 -12 -9 6 -18 6 -27 -2 -12 -10 -15 -8 -18
11 -2 17 -9 22 -25 20 -15 -2 -24 4 -30 21 -6 20 -12 23 -30 16 -20 -7 -133
-166 -133 -187 0 -5 -9 -29 -20 -53 -11 -24 -20 -58 -20 -76 0 -18 -11 -58
-25 -89 -30 -68 -31 -78 -5 -71 28 7 40 -14 33 -56 -6 -42 -29 -50 -42 -15 -8
23 -8 23 -15 2 -3 -12 -4 -29 0 -38 4 -12 0 -16 -15 -16 -12 0 -24 7 -27 15
-8 21 -16 19 -52 -13 -35 -31 -38 -42 -20 -60 14 -14 18 -33 19 -81 1 -26 -8
-42 -37 -72 l-39 -40 28 -22 c15 -12 36 -46 47 -76 17 -47 18 -57 6 -86 -9
-21 -11 -37 -4 -49 6 -11 6 -43 -1 -89 -6 -40 -11 -93 -11 -118 1 -48 -8 -62
-50 -73 -14 -4 -56 -15 -95 -26 -62 -17 -330 -121 -380 -148 -11 -6 -42 -19
-70 -30 -60 -25 -66 -46 -12 -47 28 -1 41 3 48 17 5 10 17 18 26 18 13 0 13
-3 2 -16 -10 -13 -10 -17 2 -25 25 -17 -19 -39 -77 -39 -47 0 -53 2 -56 22 -2
13 -11 24 -22 26 -17 4 -18 0 -13 -42 4 -30 3 -46 -4 -46 -6 0 -13 9 -16 19
-6 22 -73 33 -113 19 -14 -5 -27 -10 -30 -10 -3 0 -13 -4 -24 -10 -22 -12
-167 -66 -214 -80 -38 -11 -377 -341 -367 -357 3 -5 1 -12 -4 -16 -14 -8 -2
-35 15 -35 8 0 14 -4 14 -9 0 -5 13 -11 29 -14 19 -4 28 -12 27 -22 0 -10 12
-21 34 -29 75 -27 132 -60 142 -82 6 -13 21 -24 36 -26 38 -5 40 -28 3 -28
-27 0 -87 -21 -143 -51 -10 -5 -26 -13 -35 -18 -10 -5 -26 -12 -35 -15 -26 -8
-22 -49 7 -76 17 -16 28 -20 37 -13 7 6 29 13 49 17 21 4 42 13 49 21 16 19
141 77 156 71 7 -2 9 -15 7 -30 -3 -15 -1 -26 6 -26 14 0 2 -32 -18 -46 -12
-9 -13 -15 -4 -25 9 -11 7 -24 -8 -53 -22 -45 -24 -63 -8 -68 9 -3 9 -9 0 -25
-6 -12 -11 -36 -11 -53 0 -17 -7 -41 -15 -54 -22 -33 -25 -130 -5 -155 13 -17
30 -20 159 -23 128 -3 145 -1 155 14 8 13 8 23 -2 38 -18 30 -15 43 11 38 13
-2 28 1 34 8 6 6 33 15 60 18 26 4 65 19 86 32 24 16 45 23 58 19 13 -4 19 -2
19 9 0 18 25 22 35 6 9 -14 25 -12 22 3 -1 7 10 13 26 15 18 2 27 -1 27 -11 0
-19 25 -29 56 -21 25 6 31 18 14 29 -16 10 -12 25 8 25 9 0 39 8 65 17 46 17
50 17 62 0 7 -9 19 -17 28 -17 13 0 15 5 7 24 -12 32 -2 40 27 21 27 -18 43
-12 43 16 0 16 4 19 23 13 12 -3 22 -7 23 -8 0 0 -1 -22 -4 -49 -3 -32 -9 -47
-18 -47 -23 0 -27 -26 -9 -60 14 -27 16 -50 11 -124 -3 -50 -6 -106 -6 -125 0
-19 -4 -37 -10 -41 -6 -4 -3 -20 9 -44 16 -30 19 -51 15 -104 -3 -40 0 -82 7
-104 l12 -38 557 0 556 0 17 73 c15 67 24 116 33 192 19 161 21 166 53 159 14
-4 35 -14 46 -23 37 -30 80 -57 125 -78 25 -12 58 -35 74 -52 22 -23 35 -29
55 -25 22 4 28 0 41 -28 11 -24 21 -32 36 -31 14 2 32 -11 52 -36 22 -28 37
-38 50 -34 14 3 21 -2 25 -17 3 -14 12 -20 24 -19 21 4 70 -25 95 -55 17 -21
23 -21 783 -24 672 -2 769 0 788 13 27 19 56 19 63 0 5 -12 31 -15 148 -15 97
0 146 4 154 12 9 9 15 9 24 0 15 -15 48 -16 48 -1 0 7 12 9 33 5 67 -13 156
-13 161 1 3 7 14 13 24 13 10 0 24 6 30 12 10 10 17 10 32 0 28 -17 38 -15 45
9 6 19 8 19 31 5 30 -20 58 -20 74 -1 7 8 20 15 29 15 9 0 22 5 29 12 10 10
16 7 28 -10 8 -12 24 -22 35 -22 18 0 20 5 17 37 -3 33 0 37 27 44 30 9 47 -3
39 -26 -5 -13 43 -38 56 -30 5 3 6 21 3 39 -4 28 -1 36 16 46 28 14 47 1 56
-41 7 -31 17 -36 33 -16 7 8 7 18 2 27 -13 21 -3 30 35 30 19 0 36 4 39 9 8
12 106 12 106 0 0 -5 -13 -12 -29 -15 -34 -7 -48 -41 -26 -63 13 -13 17 -13
32 0 10 8 53 23 95 34 84 20 105 42 65 70 -19 13 -19 15 -2 21 12 5 23 0 35
-16 16 -21 22 -22 73 -16 50 7 56 5 62 -13 7 -24 11 -25 54 -10 21 7 31 17 31
31 0 18 4 20 39 14 28 -4 42 -2 51 9 7 8 29 15 49 15 60 0 75 2 88 12 6 5 23
6 37 2 16 -4 26 -2 26 5 0 6 14 11 30 11 18 0 33 6 36 15 4 9 19 15 35 15 25
0 29 4 29 29 0 33 3 36 46 45 29 7 32 5 38 -25 6 -34 23 -59 37 -59 5 0 7 11
3 24 -4 18 2 31 25 55 35 36 62 41 54 11 -4 -14 0 -20 11 -20 26 0 56 19 56
35 0 19 34 19 50 0 13 -16 42 -20 54 -8 12 12 70 12 77 1 4 -7 15 -8 25 -3 18
8 28 9 66 13 11 1 15 8 12 17 -8 20 10 19 26 -1 16 -18 66 -15 62 5 -2 8 3 11
13 8 9 -4 15 -1 15 7 0 25 32 28 55 6 19 -18 23 -19 28 -6 8 20 54 21 72 2 19
-18 59 -9 91 21 15 14 30 21 33 16 16 -24 44 -23 69 2 30 30 32 30 66 4 23
-18 27 -18 32 -5 8 21 70 22 78 1 7 -19 42 -19 50 0 7 18 30 19 44 2 14 -16
77 -10 93 9 10 12 14 12 30 -2 12 -11 27 -14 48 -9 56 12 65 74 12 76 -22 1
-20 2 9 8 41 9 80 31 80 47 0 18 47 23 77 7 17 -9 29 -10 33 -4 3 6 19 9 35 8
26 -2 30 1 27 21 -4 28 24 30 33 2 9 -29 75 -29 82 0 6 21 16 25 96 35 46 6
47 7 47 40 0 25 -6 39 -23 50 -16 10 -27 33 -36 76 -11 48 -19 62 -37 70 -13
4 -24 16 -24 24 0 9 -6 26 -12 38 -28 50 -37 117 -38 280 0 161 1 167 20 167
15 0 22 8 26 28 5 24 10 28 30 24 21 -4 24 -8 19 -36 -9 -50 7 -110 31 -114
13 -2 25 5 32 20 16 32 34 57 58 84 17 19 27 22 61 17 23 -3 58 -2 78 1 37 7
37 7 31 49 -3 23 -9 69 -12 102 -6 55 -11 65 -65 127 -33 36 -59 70 -60 75 0
4 -28 31 -62 59 -47 38 -76 76 -119 148 -32 54 -58 101 -58 106 0 5 -25 37
-55 71 -31 34 -58 74 -61 88 -4 14 -21 51 -39 81 -18 30 -49 89 -70 130 -20
41 -43 82 -50 90 -6 8 -25 42 -41 75 -16 33 -48 96 -72 139 -41 74 -43 82 -33
116 12 41 17 439 6 483 -4 15 -11 27 -15 27 -4 0 -11 12 -15 28 -7 30 -32 62
-48 62 -6 0 -18 7 -28 16 -22 20 -68 12 -95 -17 -11 -10 -25 -25 -32 -32 -43
-39 -75 -75 -88 -100 -20 -37 -35 -118 -39 -202 -2 -38 -11 -106 -22 -150 -12
-52 -18 -118 -18 -190 0 -122 15 -168 74 -235 17 -19 31 -42 31 -50 0 -8 9
-28 20 -45 11 -16 20 -37 20 -46 0 -9 7 -19 15 -22 8 -4 18 -21 23 -39 5 -21
18 -38 35 -46 33 -16 52 -52 61 -114 4 -25 13 -51 20 -57 7 -6 11 -22 8 -36
-2 -15 0 -25 7 -25 6 0 11 -6 11 -14 0 -20 71 -113 95 -124 11 -5 33 -35 50
-67 16 -32 46 -83 67 -114 l37 -56 -67 -6 c-130 -12 -248 -29 -297 -42 -30 -8
-72 -11 -105 -8 -84 9 -249 4 -300 -8 -25 -6 -67 -15 -95 -21 -41 -7 -137 -38
-225 -73 -64 -25 -162 -45 -204 -42 -29 3 -60 -2 -75 -9 -14 -8 -53 -16 -86
-19 -33 -2 -78 -12 -99 -21 -22 -9 -56 -17 -75 -17 -71 0 -167 -7 -193 -14
-25 -6 -27 -5 -35 47 -5 29 -8 56 -6 59 1 4 59 10 129 13 100 6 151 15 243 42
63 19 129 34 146 34 27 0 33 6 55 53 25 52 155 253 176 272 6 6 17 60 23 120
29 263 52 412 82 520 6 22 14 58 19 80 31 151 44 201 52 211 14 19 23 114 10
114 -15 0 -29 -27 -37 -73 -5 -28 -12 -37 -27 -37 -14 0 -18 -5 -14 -18 4 -12
-1 -26 -14 -37 -11 -10 -20 -30 -20 -45 0 -17 -8 -33 -22 -43 -19 -12 -21 -18
-10 -28 17 -18 15 -46 -5 -53 -29 -11 -37 9 -23 59 7 26 18 49 25 51 6 3 12
27 12 54 0 28 10 69 21 93 11 23 24 69 28 102 4 33 10 51 12 41 2 -10 13 -28
24 -40 l21 -21 -7 45 c-16 113 -17 137 -2 149 11 9 17 8 30 -4 9 -9 16 -21 16
-26 0 -6 15 -9 33 -7 l32 3 1 135 c0 74 4 154 8 177 11 62 1 83 -37 82 -18 0
-41 -4 -52 -9 -27 -10 -55 15 -55 50 0 18 -18 50 -55 95 -31 37 -61 77 -67 89
-6 11 -22 35 -35 51 -36 47 -37 48 -61 88 -16 28 -22 54 -22 97 l0 59 -37 6
c-21 3 -56 10 -78 16 -22 5 -60 11 -83 13 -24 2 -51 10 -59 19 -14 14 -18 14
-38 1 -20 -13 -28 -13 -70 2 -26 8 -57 13 -68 10 -11 -2 -44 0 -74 5 -39 8
-75 7 -125 -1 -49 -9 -73 -9 -80 -2 -8 8 -17 8 -30 1 -10 -5 -39 -10 -66 -11
-26 0 -59 -7 -74 -16 -20 -12 -30 -13 -40 -4 -11 8 -22 7 -46 -8 -18 -11 -45
-20 -60 -20 -15 0 -40 -9 -56 -19 -17 -11 -34 -17 -39 -14 -4 3 -16 -2 -26
-11 -19 -17 -124 -56 -152 -56 -18 0 -35 33 -30 58 1 8 -7 16 -18 19 -11 3
-22 11 -25 19 -3 8 -12 14 -20 14 -17 0 -78 79 -70 92 9 14 -38 76 -61 83 -27
7 -68 73 -61 98 6 26 -7 52 -51 102 -7 7 -13 20 -13 28 0 9 -3 17 -7 19 -8 3
-53 64 -53 71 0 24 -202 339 -229 357 -5 3 -11 19 -15 35 -11 48 -49 125 -60
125 -6 0 -20 -6 -31 -12z m2209 -1544 c10 -25 -4 -37 -20 -17 -17 23 -17 33 0
33 8 0 17 -7 20 -16z m-116 -7 c9 -10 4 -13 -23 -13 -39 0 -47 12 -12 19 12 2
23 5 23 6 1 0 6 -5 12 -12z m262 -302 c0 -8 -4 -15 -10 -15 -5 0 -10 7 -10 15
0 8 5 15 10 15 6 0 10 -7 10 -15z m-5954 -99 c-4 -25 -26 -34 -26 -10 0 16 -1
16 -15 -2 -17 -23 -19 -17 -4 24 9 27 13 30 29 19 11 -6 18 -20 16 -31z m-26
-106 c0 -11 -5 -20 -11 -20 -5 0 -7 5 -4 10 3 6 1 10 -5 10 -6 0 -8 5 -5 10
10 17 25 11 25 -10z m710 -31 c0 -6 -4 -7 -10 -4 -5 3 -10 11 -10 16 0 6 5 7
10 4 6 -3 10 -11 10 -16z m4207 -113 c-9 -26 -27 -15 -27 16 1 31 1 32 15 13
9 -10 14 -24 12 -29z m-23 -135 c-4 -14 -9 -30 -9 -36 -9 -63 -18 -85 -31 -74
-7 6 -17 8 -23 5 -10 -7 -21 16 -21 47 0 16 3 18 12 9 21 -21 48 -14 48 12 0
14 -4 28 -10 31 -18 11 -11 54 13 78 l22 22 3 -34 c2 -19 0 -46 -4 -60z m-99
-12 c-10 -15 -25 -10 -19 6 4 8 10 12 15 9 5 -3 7 -10 4 -15z m1019 -181 c-3
-4 -11 -5 -18 -2 -19 7 -27 64 -9 64 7 0 14 6 14 13 1 6 5 -6 9 -28 4 -22 6
-43 4 -47z m-972 -38 c-4 -51 -6 -55 -21 -45 -6 3 -11 26 -11 51 0 38 3 45 18
42 14 -3 16 -12 14 -48z m-3617 -30 c-3 -5 -13 -10 -21 -10 -8 0 -12 5 -9 10
3 6 13 10 21 10 8 0 12 -4 9 -10z m3635 -50 c0 -5 -5 -10 -11 -10 -5 0 -7 5
-4 10 3 6 8 10 11 10 2 0 4 -4 4 -10z m916 -45 c-3 -9 -11 -13 -16 -10 -8 5
-7 11 1 21 14 18 24 11 15 -11z m-2216 -13 c0 -11 -11 -24 -25 -30 -39 -18
-48 -14 -25 10 11 12 20 25 20 30 0 4 7 8 15 8 8 0 15 -8 15 -18z m1334 -51
c11 -17 -6 -43 -25 -38 -14 4 -19 0 -19 -16 0 -29 -10 -15 -16 21 -4 26 -1 31
18 35 13 2 26 5 30 6 4 0 9 -3 12 -8z m-1447 -28 c2 -6 -10 -18 -28 -27 -41
-21 -49 -20 -49 2 0 32 68 54 77 25z m2298 -90 c10 -19 11 -31 4 -40 -6 -6 -8
-16 -5 -22 11 -16 -11 -56 -38 -70 -14 -8 -26 -19 -26 -25 0 -15 -101 -158
-107 -152 -5 5 52 113 73 137 8 8 14 19 14 24 0 5 6 16 14 24 8 9 19 57 25
108 14 113 25 145 29 86 2 -24 9 -55 17 -70z m-201 -207 c-33 -50 -54 -69 -54
-48 0 4 15 32 34 63 19 31 38 67 42 80 8 23 9 23 12 -8 2 -23 -7 -46 -34 -87z
m191 -2 c-6 -51 -16 -69 -105 -189 l-98 -133 -121 -39 c-67 -22 -121 -37 -121
-33 0 21 166 125 211 132 12 2 27 12 33 23 48 87 188 294 200 295 4 0 5 -25 1
-56z m-6050 -14 c3 -5 -16 -19 -42 -31 -26 -12 -70 -32 -98 -45 -70 -33 -111
-40 -118 -20 -8 20 7 29 33 21 14 -4 20 -2 20 8 0 16 45 32 61 22 5 -4 16 1
25 9 8 9 23 16 32 16 9 1 28 7 42 15 30 17 37 18 45 5z m-288 -110 c4 -24 -29
-44 -45 -28 -9 9 -12 8 -12 -5 0 -16 -4 -18 -38 -21 -7 -1 -17 -8 -22 -16 -9
-13 -11 -13 -20 0 -16 25 -11 48 13 55 12 4 36 12 52 20 63 27 67 27 72 -5z
m4480 24 c-3 -3 -12 -4 -19 -1 -8 3 -5 6 6 6 11 1 17 -2 13 -5z m-1778 -68
c-2 -2 -15 -9 -29 -16 -23 -12 -24 -12 -11 3 7 10 20 17 29 17 8 0 13 -2 11
-4z m1791 -51 c0 -15 -6 -25 -14 -25 -22 0 -30 19 -16 35 18 22 30 18 30 -10z
m1350 -125 c0 -18 -37 -31 -49 -16 -9 11 -9 15 1 19 22 9 48 7 48 -3z m-100
-25 c7 -18 17 -25 37 -25 16 0 23 -4 18 -9 -16 -15 -104 4 -120 25 -12 17 -11
20 13 25 15 4 30 7 35 8 4 0 12 -10 17 -24z m910 -85 c0 -5 -4 -10 -10 -10 -5
0 -10 5 -10 10 0 6 5 10 10 10 6 0 10 -4 10 -10z m-745 -180 c-5 -9 -69 -30
-90 -30 -16 1 27 23 60 31 16 4 31 7 33 8 2 1 1 -3 -3 -9z m-1335 -103 c0 -5
-7 -4 -15 3 -8 7 -15 20 -15 29 1 13 3 13 15 -3 8 -11 15 -24 15 -29z m-1050
-421 c0 -20 -46 -73 -55 -64 -4 4 0 14 9 23 9 9 21 25 26 36 13 23 20 24 20 5z
m-3275 -36 c-3 -5 -13 -10 -21 -10 -8 0 -14 5 -14 10 0 6 9 10 21 10 11 0 17
-4 14 -10z m3219 -54 c-3 -8 -14 -16 -25 -19 -12 -3 -19 -14 -19 -29 0 -30
-45 -87 -59 -73 -12 12 73 135 94 135 8 0 12 -6 9 -14z m-3334 -4 c0 -11 -46
-32 -54 -25 -3 3 -1 12 5 20 13 14 49 18 49 5z m7526 -54 c-2 -25 -6 -28 -38
-28 -22 0 -21 1 7 25 17 13 31 24 32 25 1 0 1 -10 -1 -22z m-7314 -23 c-7 -23
-21 -35 -23 -17 -1 18 10 42 19 42 6 0 7 -10 4 -25z m-444 -2 c-10 -2 -26 -2
-35 0 -10 3 -2 5 17 5 19 0 27 -2 18 -5z m7637 -3 c-3 -5 -13 -10 -21 -10 -8
0 -12 5 -9 10 3 6 13 10 21 10 8 0 12 -4 9 -10z m-8023 -132 c-9 -9 -15 -9
-24 0 -9 9 -7 12 12 12 19 0 21 -3 12 -12z m7463 -8 c3 -5 1 -10 -4 -10 -6 0
-11 5 -11 10 0 6 2 10 4 10 3 0 8 -4 11 -10z m420 -50 c-3 -5 -10 -10 -16 -10
-5 0 -9 5 -9 10 0 6 7 10 16 10 8 0 12 -4 9 -10z m-5835 -25 c17 -18 19 -25 9
-25 -14 0 -59 35 -59 45 0 14 30 2 50 -20z m-164 -43 c-11 -11 -16 -12 -16 -4
0 18 24 43 29 30 2 -5 -4 -17 -13 -26z m8 -61 c-4 -9 -10 -34 -14 -56 -4 -22
-11 -49 -16 -60 -8 -19 -8 -19 -15 5 -19 68 0 141 34 132 12 -3 16 -10 11 -21z
m-1074 -31 c0 -5 -4 -10 -10 -10 -5 0 -10 5 -10 10 0 6 5 10 10 10 6 0 10 -4
10 -10z m5420 -21 c0 -5 -4 -9 -10 -9 -5 0 -10 7 -10 16 0 8 5 12 10 9 6 -3
10 -10 10 -16z m-128 -24 c0 -5 -5 -11 -11 -13 -6 -2 -11 4 -11 13 0 9 5 15
11 13 6 -2 11 -8 11 -13z m-5292 -53 c0 -15 -2 -15 -10 -2 -13 20 -13 33 0 25
6 -3 10 -14 10 -23z m1623 -4 c20 -10 23 -28 5 -28 -15 0 -78 37 -78 45 0 7
49 -5 73 -17z m3437 3 c0 -5 -13 -14 -29 -19 -23 -8 -31 -7 -35 3 -3 9 4 15
22 18 15 2 30 5 35 6 4 0 7 -3 7 -8z m-180 -37 c0 -8 -72 -36 -78 -29 -10 9
12 23 43 28 17 2 31 5 33 6 1 0 2 -1 2 -5z m-3118 -72 c-14 -4 -62 16 -62 28
0 5 16 2 36 -7 19 -10 31 -19 26 -21z m-1777 -112 c3 -5 -1 -10 -10 -10 -9 0
-13 5 -10 10 3 6 8 10 10 10 2 0 7 -4 10 -10z"/>
<path d="M4831 1474 c0 -11 3 -14 6 -6 3 7 2 16 -1 19 -3 4 -6 -2 -5 -13z"/>
<path d="M5360 1106 c0 -8 5 -18 10 -21 6 -3 10 3 10 14 0 12 -4 21 -10 21 -5
0 -10 -6 -10 -14z"/>
<path d="M1807 834 c-8 -8 1 -24 14 -24 5 0 9 7 9 15 0 15 -12 20 -23 9z"/>
<path d="M8685 290 c-3 -5 -1 -10 4 -10 6 0 11 5 11 10 0 6 -2 10 -4 10 -3 0
-8 -4 -11 -10z"/>
</g>
</svg>
