<?xml version="1.0" standalone="no"?><!DOCTYPE svg PUBLIC "-//W3C//DTD SVG 1.1//EN" "http://www.w3.org/Graphics/SVG/1.1/DTD/svg11.dtd"><svg t="1629430268523" class="icon" viewBox="0 0 1151 1024" version="1.1" xmlns="http://www.w3.org/2000/svg" p-id="3498" xmlns:xlink="http://www.w3.org/1999/xlink" width="224.8046875" height="200"><defs><style type="text/css"></style></defs><path d="M142.655822 283.520926a142.079822 142.079822 0 0 0 142.591821-141.759823A142.079822 142.079822 0 0 0 142.719822 0.00128 142.079822 142.079822 0 0 0 0 141.761103a142.079822 142.079822 0 0 0 142.655822 141.823823z m962.174797 573.439283c-326.527592-201.599748-743.103071-201.599748-1069.438663 0-31.99996 19.711975-43.071946 63.61592-25.151969 98.559877 17.855978 34.815956 58.047927 47.039941 90.047888 27.327965a897.342878 897.342878 0 0 1 939.646825 0c10.111987 6.399992 21.375973 9.343988 32.31996 9.343989 23.103971 0 45.503943-13.311983 57.599928-36.863954 18.047977-34.751957 6.719992-78.719902-25.023969-98.367877zM998.398752 0.00128a142.079822 142.079822 0 0 0-142.655822 141.759823A142.079822 142.079822 0 0 0 998.398752 283.584926a142.079822 142.079822 0 0 0 142.655822-141.823823A142.079822 142.079822 0 0 0 998.398752 0.00128z" p-id="3499" fill="#4d78cc"></path></svg>